<?xml version="1.0" encoding="UTF-8" standalone="no"?>
<!-- Generator: Adobe Illustrator 27.0.0, SVG Export Plug-In . SVG Version: 6.00 Build 0)  -->

<svg
   version="1.1"
   id="lil_hexes"
   x="0px"
   y="0px"
   viewBox="0 0 5450.2 1461.1"
   style="enable-background:new 0 0 5450.2 1461.1;"
   xml:space="preserve"
   sodipodi:docname="about-page_hero-banner.svg"
   inkscape:version="1.2 (dc2aeda, 2022-05-15)"
   xmlns:inkscape="http://www.inkscape.org/namespaces/inkscape"
   xmlns:sodipodi="http://sodipodi.sourceforge.net/DTD/sodipodi-0.dtd"
   xmlns="http://www.w3.org/2000/svg"
   xmlns:svg="http://www.w3.org/2000/svg"><defs
   id="defs1774" /><sodipodi:namedview
   id="namedview1772"
   pagecolor="#ffffff"
   bordercolor="#000000"
   borderopacity="0.25"
   inkscape:showpageshadow="2"
   inkscape:pageopacity="0.0"
   inkscape:pagecheckerboard="0"
   inkscape:deskcolor="#d1d1d1"
   showgrid="false"
   inkscape:zoom="0.32589837"
   inkscape:cx="1597.1237"
   inkscape:cy="955.81946"
   inkscape:window-width="1728"
   inkscape:window-height="1051"
   inkscape:window-x="0"
   inkscape:window-y="38"
   inkscape:window-maximized="1"
   inkscape:current-layer="g1576" />
<style
   type="text/css"
   id="style1436">
	.st0{opacity:0.23;}
	.st1{fill:none;stroke:#01A14A;stroke-miterlimit:10;}
	.st2{fill:none;stroke:#02737B;stroke-miterlimit:10;}
	.st3{fill:none;stroke:#4E4E4E;stroke-miterlimit:10;}
	.st4{fill:none;stroke:#58C3B8;stroke-miterlimit:10;}
	.st5{fill:#4E4E4E;}
	.st6{fill:none;stroke:#D61F2B;stroke-miterlimit:10;}
	.st7{fill:none;stroke:#355EAB;stroke-miterlimit:10;}
	.st8{fill:none;stroke:#1BC3F2;stroke-miterlimit:10;}
	.st9{opacity:0.6;fill:none;stroke:#932A8E;stroke-miterlimit:10;enable-background:new    ;}
	.st10{opacity:0.75;fill:none;stroke:#F79421;stroke-miterlimit:10;enable-background:new    ;}
	.st11{fill:none;stroke:#427DC0;stroke-miterlimit:10;}
	.st12{fill:none;stroke:#F89820;stroke-miterlimit:10;}
	.st13{fill:none;stroke:#FECE24;stroke-miterlimit:10;}
	.st14{opacity:0.7;fill:none;stroke:#FBB03C;stroke-miterlimit:10;enable-background:new    ;}
	.st15{fill:#010101;}
	.st16{opacity:0.6;fill:none;stroke:#C1282D;stroke-width:4;stroke-miterlimit:10;enable-background:new    ;}
	.st17{fill:#FFFFFF;stroke:#F06523;stroke-width:4;stroke-miterlimit:10;}
	.st18{fill:none;stroke:#C6212D;stroke-width:4;stroke-miterlimit:10;}
	.st19{fill:none;stroke:#F89820;stroke-width:4;stroke-miterlimit:10;}
	.st20{fill:none;stroke:#F06523;stroke-width:4;stroke-miterlimit:10;}
	.st21{fill:none;stroke:#EE312E;stroke-width:4;stroke-miterlimit:10;}
	.st22{fill:#FFFFFF;stroke:#EC1E61;stroke-width:4;stroke-miterlimit:10;}
	.st23{fill:none;stroke:#38C1F1;stroke-width:4;stroke-miterlimit:10;}
	.st24{fill:none;stroke:#427DC0;stroke-width:4;stroke-miterlimit:10;}
	.st25{fill:none;stroke:#F89721;stroke-width:4;stroke-miterlimit:10;}
	.st26{opacity:0.2;}
	.st27{fill:none;stroke:#FFFFFF;stroke-width:4;}
	.st28{fill:#FFFFFF;stroke:#38C1F1;stroke-width:4;stroke-miterlimit:10;}
	.st29{opacity:0.7;fill:none;stroke:#00A99D;stroke-miterlimit:10;enable-background:new    ;}
	.st30{fill:#FFFFFF;stroke:#01A14A;stroke-miterlimit:10;}
	.st31{fill:#FFFFFF;stroke:#692E66;stroke-miterlimit:10;}
	.st32{opacity:0.7;fill:none;stroke:#B9539F;stroke-miterlimit:10;enable-background:new    ;}
	.st33{fill:#FFFFFF;stroke:#B9539F;stroke-miterlimit:10;enable-background:new    ;}
	.st34{fill:#FFFFFF;stroke:#B6732C;stroke-miterlimit:10;}
	.st35{fill:#FFFFFF;stroke:#C6212D;stroke-miterlimit:10;}
	.st36{fill:#FFFFFF;stroke:#F89820;stroke-miterlimit:10;}
</style>
<g
   class="st0"
   id="g1769">
	<g
   id="g1576">
		<polygon
   class="st1"
   points="5578.4,1044.2 5578.4,920.8 4532.7,1522.5 4747.2,1522.5   "
   id="polygon1438" />
		<polygon
   class="st2"
   points="5578.4,901.5 5578.4,870.3 4445,1522.5 4499.3,1522.5   "
   id="polygon1440" />
		<polygon
   class="st3"
   points="5578.4,1204.8 5578.4,1189.2 4999.2,1522.5 5026.4,1522.5   "
   id="polygon1442" />
		<polygon
   class="st3"
   points="5578.4,1070.6 5578.4,1051.3 4759.6,1522.5 4793.2,1522.5   "
   id="polygon1444" />
		<polygon
   class="st3"
   points="5578.4,1339.5 5578.4,1214 5042.2,1522.5 5260.4,1522.5   "
   id="polygon1446" />
		<polygon
   class="st3"
   points="5578.4,1112.5 5578.4,1081.3 4811.7,1522.5 4866,1522.5   "
   id="polygon1448" />
		<polygon
   class="st4"
   points="5578.4,647.7 5578.4,628.4 4024.8,1522.5 4058.3,1522.5   "
   id="polygon1450" />
		<polygon
   class="st5"
   points="5578.4,1362.4 5578.4,1362.2 5299.7,1522.5 5300,1522.5   "
   id="polygon1452" />
		<polygon
   class="st5"
   points="5333.3,1522.5 5578.4,1381.5 5578.4,1380.4 5331.3,1522.5   "
   id="polygon1454" />
		<polygon
   class="st6"
   points="5578.4,785.7 5578.4,738.4 4215.3,1522.5 4297.5,1522.5   "
   id="polygon1456" />
		<polygon
   class="st6"
   points="5578.4,1500.7 5578.4,1453.4 5458.2,1522.5 5540.4,1522.5   "
   id="polygon1458" />
		<polygon
   class="st7"
   points="5578.4,609.5 5578.4,531.5 3856.4,1522.5 3992.1,1522.5   "
   id="polygon1460" />
		<polygon
   class="st8"
   points="5578.4,464.7 5578.4,426.6 3674.1,1522.5 3740.4,1522.5   "
   id="polygon1462" />
		<polygon
   class="st3"
   points="5578.4,408 5578.4,395 3619.2,1522.5 3641.8,1522.5   "
   id="polygon1464" />
		<polygon
   class="st5"
   points="5331.3,1522.5 5578.4,1380.4 5578.4,1362.4 5300,1522.5   "
   id="polygon1466" />
		<polygon
   class="st9"
   points="5331.3,1522.5 5578.4,1380.4 5578.4,1362.4 5300,1522.5   "
   id="polygon1468" />
		<polygon
   class="st10"
   points="5578.4,1420.1 5578.4,1402.1 5369,1522.5 5400.3,1522.5   "
   id="polygon1470" />
		<polygon
   class="st11"
   points="5578.4,293.5 5578.4,275.5 3412.1,1522.5 3443.4,1522.5   "
   id="polygon1472" />
		<polygon
   class="st1"
   points="1977.1,1442.2 4608.6,-72.1 4394.1,-72.1 1923.6,1349.6   "
   id="polygon1474" />
		<polygon
   class="st2"
   points="1953.1,1313.3 4360.6,-72.1 4306.4,-72.1 1939.6,1289.9   "
   id="polygon1476" />
		<polygon
   class="st3"
   points="4887.7,-72.1 4860.5,-72.1 2089.5,1522.5 2116.7,1522.5   "
   id="polygon1478" />
		<polygon
   class="st3"
   points="2012.1,1448.5 4654.5,-72.1 4621,-72.1 2003.8,1434   "
   id="polygon1480" />
		<polygon
   class="st3"
   points="5121.8,-72.1 4903.6,-72.1 2132.5,1522.5 2350.7,1522.5   "
   id="polygon1482" />
		<polygon
   class="st3"
   points="1970.3,1514.5 4727.3,-72.1 4673.1,-72.1 1956.8,1491.1   "
   id="polygon1484" />
		<polygon
   class="st4"
   points="1912.4,1083 3919.6,-72.1 3886.1,-72.1 1904.1,1068.5   "
   id="polygon1486" />
		<polygon
   class="st5"
   points="5161.6,-72.1 5161.3,-72.1 2389.3,1522.5 2389.5,1522.5   "
   id="polygon1488" />
		<polygon
   class="st5"
   points="2422.9,1522.5 5194.9,-72.1 5192.9,-72.1 2420.9,1522.5   "
   id="polygon1490" />
		<polygon
   class="st6"
   points="2329.1,980.7 4159.1,-72.1 4076.9,-72.1 2308.6,945.2   "
   id="polygon1492" />
		<polygon
   class="st2"
   points="5578.4,114.7 5578.4,83.5 3077.8,1522.5 3132,1522.5   "
   id="polygon1494" />
		<polygon
   class="st6"
   points="5402,-72.1 5319.8,-72.1 2547.8,1522.5 2630,1522.5   "
   id="polygon1496" />
		<polygon
   class="st7"
   points="1826.6,1094.4 3853.4,-72.1 3717.7,-72.1 1792.8,1035.7   "
   id="polygon1498" />
		<polygon
   class="st8"
   points="1875,921.6 3601.7,-72.1 3535.4,-72.1 1863.7,890   "
   id="polygon1500" />
		<polygon
   class="st3"
   points="1799.8,908.2 3503.1,-72.1 3480.6,-72.1 1794.2,898.4   "
   id="polygon1502" />
		<polygon
   class="st9"
   points="2420.9,1522.5 5192.9,-72.1 5161.6,-72.1 2389.5,1522.5   "
   id="polygon1504" />
		<polygon
   class="st10"
   points="5261.9,-72.1 5230.6,-72.1 2458.5,1522.5 2489.9,1522.5   "
   id="polygon1506" />
		<polygon
   class="st3"
   points="5578.4,261.4 5578.4,210.2 3299.2,1522.5 3388.1,1522.5   "
   id="polygon1508" />
		<polygon
   class="st11"
   points="5578.4,196.9 5578.4,183.9 3253.5,1522.5 3276.1,1522.5   "
   id="polygon1510" />
		<polygon
   class="st3"
   points="3127.5,-72.1 3038.6,-72.1 268.9,1522.5 357.9,1522.5   "
   id="polygon1512" />
		<polygon
   class="st11"
   points="3015.4,-72.1 2992.9,-72.1 223.3,1522.5 245.8,1522.5   "
   id="polygon1514" />
		<polygon
   class="st11"
   points="3182.9,-72.1 3151.5,-72.1 381.3,1522.5 412.6,1522.5   "
   id="polygon1516" />
		<polygon
   class="st1"
   points="357.2,-72.1 -76.6,177.5 -76.6,300.9 571.7,-72.1   "
   id="polygon1518" />
		<polygon
   class="st2"
   points="269.4,-72.1 -76.6,127 -76.6,158.2 323.7,-72.1   "
   id="polygon1520" />
		<polygon
   class="st3"
   points="584.1,-72.1 -76.6,308.1 -76.6,327.4 617.6,-72.1   "
   id="polygon1522" />
		<polygon
   class="st3"
   points="636.2,-72.1 -76.6,338 -76.6,369.3 690.4,-72.1   "
   id="polygon1524" />
		<polygon
   class="st6"
   points="42.4,-57.1 -74.1,10 -74.1,57.3 124.6,-57.1   "
   id="polygon1526" />
		<polygon
   class="st1"
   points="1162.5,1249.8 1148.8,1226.1 634.3,1522.5 689,1522.5   "
   id="polygon1528" />
		<polygon
   class="st12"
   points="1098.4,1367.7 1090.8,1354.6 799.3,1522.5 829.7,1522.5   "
   id="polygon1530" />
		<polygon
   class="st11"
   points="1262.4,1359.7 1254.8,1346.6 949.4,1522.5 979.9,1522.5   "
   id="polygon1532" />
		<polygon
   class="st1"
   points="1675.6,-72.1 -76.6,937.6 -76.6,1061.1 1889.8,-72.1   "
   id="polygon1534" />
		<polygon
   class="st2"
   points="1588,-72.1 -76.6,887.2 -76.6,918.4 1642.2,-72.1   "
   id="polygon1536" />
		<polygon
   class="st3"
   points="2141.5,-72.1 -76.6,1206.2 -76.6,1221.8 2168.7,-72.1   "
   id="polygon1538" />
		<polygon
   class="st3"
   points="1902.2,-72.1 -76.6,1068.3 -76.6,1087.6 1935.7,-72.1   "
   id="polygon1540" />
		<polygon
   class="st3"
   points="2299.6,-72.1 2184.5,-72.1 -76.6,1230.9 -76.6,1356.6 2331.9,-31.5   "
   id="polygon1542" />
		<polygon
   class="st3"
   points="1954.2,-72.1 -76.6,1098.2 -76.6,1129.4 2008.4,-72.1   "
   id="polygon1544" />
		<polygon
   class="st4"
   points="1168.3,-72.1 -76.6,645.3 -76.6,664.6 1201.8,-72.1   "
   id="polygon1546" />
		<polygon
   class="st4"
   points="2365.7,235.5 2357.3,221 98.9,1522.5 132.4,1522.5   "
   id="polygon1548" />
		<polygon
   class="st6"
   points="1359.4,-72.1 -76.6,755.2 -76.6,802.5 1441.5,-72.1   "
   id="polygon1550" />
		<polygon
   class="st7"
   points="1000,-72.1 -76.6,548.3 -76.6,626.5 1135.5,-72.1   "
   id="polygon1552" />
		<polygon
   class="st7"
   points="855.8,-72.1 -76.6,466.2 -76.6,544.4 991.2,-72.1   "
   id="polygon1554" />
		<path
   class="st13"
   d="M2457.6,117.9c-2.1-2.8-4.4-5.5-6.7-8.1c-2.7-3.1-5.4-6.2-8.2-9.3l-2467.9,1422H20L2457.6,117.9z"
   id="path1556" />
		<path
   class="st12"
   d="M2434.9,92c-0.8-0.9-1.6-1.7-2.5-2.6c-1.8-1.9-3.7-3.8-5.6-5.7L-70.6,1522.5h22.5L2434.9,92z"
   id="path1558" />
		<polygon
   class="st9"
   points="2372.4,-30.2 -76.6,1380.7 -76.6,1398.8 2380.2,-16.7   "
   id="polygon1560" />
		<polygon
   class="st10"
   points="2443.2,-31.3 -76.6,1420.5 -76.6,1438.5 2451,-17.7   "
   id="polygon1562" />
		<polygon
   class="st14"
   points="1310.8,40.2 1319.8,56.9 1338.8,57.3 1348.8,41.1 1339.7,24.4 1320.7,23.9   "
   id="polygon1564" />
		<polygon
   class="st4"
   points="4590.5,580 4582.2,565.5 2919.1,1522.5 2952.6,1522.5   "
   id="polygon1566" />
		<path
   class="st13"
   d="M4813.1,379.8c-2.1-2.8-4.4-5.5-6.7-8.1c-2.7-3.1-5.4-6.2-8.2-9.3L2781.8,1522.5h45.1L4813.1,379.8z"
   id="path1568" />
		<path
   class="st12"
   d="M4790.4,353.8c-0.8-0.9-1.6-1.7-2.5-2.6c-1.8-1.9-3.7-3.8-5.6-5.7l-2046,1177.1h22.6L4790.4,353.8z"
   id="path1570" />
		<polygon
   class="st15"
   points="2358.5,1540.4 2389.5,1522.5 2389.3,1522.5 2358.4,1540.3   "
   id="polygon1572" />
		<polygon
   class="st15"
   points="-76.6,1539 -48.1,1522.5 -70.6,1522.5 -76.6,1526   "
   id="polygon1574" />
	</g>
	
	<polygon
   class="st29"
   points="2990.5,105.9 2982.3,90.6 2991.3,75.8 3008.7,76.3 3017.1,91.6 3007.9,106.4  "
   id="polygon1745" />
	<polygon
   class="st14"
   points="3379.8,428.9 3370.8,412.2 3380.7,395.9 3399.7,396.4 3408.8,413.1 3398.8,429.3  "
   id="polygon1747" />
	<polygon
   class="st30"
   points="4556.7,609.1 4540.9,579.9 4558.2,551.6 4591.5,552.4 4607.3,581.6 4590,610  "
   id="polygon1749" />
	<polygon
   class="st31"
   points="4787.1,397.5 4763.7,354.5 4789.3,312.9 4838.1,314.2 4861.4,357.2 4835.9,398.8  "
   id="polygon1751" />
	<polygon
   class="st32"
   points="3053.1,145.9 3041.1,123.8 3054.3,102.5 3079.3,103.1 3091.3,125.1 3078.2,146.6  "
   id="polygon1753" />
	<polygon
   class="st33"
   points="3532.8,1082.5 3520.9,1060.4 3534,1039 3559.1,1039.7 3571,1061.7 3557.9,1083.1  "
   id="polygon1755" />
	<polygon
   class="st33"
   points="3522.3,1407.2 3510.3,1385.2 3523.4,1363.8 3548.5,1364.4 3560.5,1386.5 3547.3,1407.9  "
   id="polygon1757" />
	<polygon
   class="st30"
   points="2350.7,253.5 2334.8,224.3 2352.1,195.9 2385.4,196.8 2401.2,226 2383.9,254.4  "
   id="polygon1759" />
	<polygon
   class="st31"
   points="2435,132.7 2411.6,89.7 2437.2,48.1 2486,49.4 2509.3,92.4 2483.8,134  "
   id="polygon1761" />
	<polygon
   class="st34"
   points="1152.6,1263.9 1131.9,1225.8 1154.6,1188.8 1198,1190 1218.7,1228.1 1196,1265.1  "
   id="polygon1763" />
	<polygon
   class="st35"
   points="1091.3,1376.6 1079.8,1355.4 1092.4,1334.8 1116.6,1335.4 1128.1,1356.6 1115.4,1377.2  "
   id="polygon1765" />
	<polygon
   class="st36"
   points="1255.3,1368.6 1243.8,1347.4 1256.4,1326.8 1280.6,1327.4 1292.1,1348.6 1279.4,1369.2  "
   id="polygon1767" />
</g>
</svg>
