<svg width="900" height="961" viewBox="0 0 900 961" fill="none" xmlns="http://www.w3.org/2000/svg">
<mask id="mask0_15_1833" style="mask-type:alpha" maskUnits="userSpaceOnUse" x="7" y="9" width="886" height="887">
<circle cx="450" cy="452.419" r="442.742" fill="#D9D9D9"/>
</mask>
<g mask="url(#mask0_15_1833)">
<path fill-rule="evenodd" clip-rule="evenodd" d="M433.247 553.721C427.704 544.722 432.109 528.827 431.046 517.334C442.56 515.632 455.265 516.352 466.935 516.942C467.727 528.908 467.788 541.369 466.935 553.228C455.799 554.343 444.461 553.416 433.247 553.721Z" stroke="#BFADEA" stroke-width="4" stroke-linecap="round"/>
<path fill-rule="evenodd" clip-rule="evenodd" d="M437.317 548.049C445.419 547.88 453.615 548.384 461.658 547.811C462.669 540.134 464.025 529.675 461.013 522.842C453.511 521.334 445.532 522.995 438.035 522.859C435.101 529.83 436.376 540.215 437.317 548.049Z" stroke="#BFADEA" stroke-width="4" stroke-linecap="round"/>
<path fill-rule="evenodd" clip-rule="evenodd" d="M437.316 624.216C451.466 658.079 483.798 599.743 441.956 611.719C439.563 615.453 436.699 619.49 437.316 624.216Z" stroke="#BFADEA" stroke-width="4" stroke-linecap="round"/>
<path fill-rule="evenodd" clip-rule="evenodd" d="M173.604 744.138C186.111 743.804 198.878 744.801 211.224 743.649C214.424 727.467 212.044 709.229 212.431 692.356C199.832 690.648 186.042 691.377 173.286 691.964C172.684 709.207 172.028 727.091 173.604 744.138Z" stroke="#BFADEA" stroke-width="4" stroke-linecap="round"/>
<path fill-rule="evenodd" clip-rule="evenodd" d="M246.857 744.138C259.301 743.973 271.835 744.465 284.222 743.9C285.95 727.034 285.193 708.985 284.616 691.964C272.053 691.173 258.993 691.116 246.538 691.964C245.938 709.207 245.282 727.091 246.857 744.138Z" stroke="#BFADEA" stroke-width="4" stroke-linecap="round"/>
<path fill-rule="evenodd" clip-rule="evenodd" d="M619.637 744.138C632.08 743.973 644.616 744.465 657.001 743.9C658.73 727.035 657.973 708.985 657.395 691.964C644.561 691.429 630.794 690.598 618.339 692.356C618.649 709.401 616.065 727.856 619.637 744.138Z" stroke="#BFADEA" stroke-width="4" stroke-linecap="round"/>
<path fill-rule="evenodd" clip-rule="evenodd" d="M687.193 744.138C699.908 743.971 712.714 744.465 725.371 743.9C727.099 727.035 726.342 708.985 725.765 691.964C712.931 691.429 699.164 690.598 686.709 692.356C686.496 709.479 685.495 727.364 687.193 744.138Z" stroke="#BFADEA" stroke-width="4" stroke-linecap="round"/>
<path fill-rule="evenodd" clip-rule="evenodd" d="M177.673 738.466C187.239 738.131 197.1 739.134 206.478 737.972C207.02 724.114 207.847 709.33 206.084 695.85C197.165 695.534 187.867 694.868 179.06 696.153C175.855 709.124 178.575 724.557 177.673 738.466Z" stroke="#BFADEA" stroke-width="4" stroke-linecap="round"/>
<path fill-rule="evenodd" clip-rule="evenodd" d="M252.555 738.466C249.385 725.95 250.798 709.237 251.817 695.85C260.925 695.273 270.243 695.393 279.338 695.759C281.059 709.383 280.318 724.192 279.732 737.972C270.766 739.069 261.599 738.174 252.555 738.466Z" stroke="#BFADEA" stroke-width="4" stroke-linecap="round"/>
<path fill-rule="evenodd" clip-rule="evenodd" d="M623.706 738.466C632.996 737.878 643.027 739.647 651.863 737.58C652.293 724.127 652.644 710.301 651.702 696.963C643.524 694.028 633.112 695.744 624.339 696.01C621.549 709.189 622.724 724.866 623.706 738.466Z" stroke="#BFADEA" stroke-width="4" stroke-linecap="round"/>
<path fill-rule="evenodd" clip-rule="evenodd" d="M692.076 738.466C701.91 737.876 712.483 739.648 721.861 737.58C722.29 724.127 722.642 710.301 721.7 696.963C712.979 694.015 702.024 695.756 692.709 696.01C689.919 709.189 691.094 724.866 692.076 738.466Z" stroke="#BFADEA" stroke-width="4" stroke-linecap="round"/>
<path fill-rule="evenodd" clip-rule="evenodd" d="M173.604 854.337C186.111 854.003 198.878 855 211.224 853.848C214.424 837.666 212.044 819.428 212.431 802.555C199.832 800.847 186.042 801.576 173.286 802.163C172.684 819.406 172.028 837.29 173.604 854.337Z" stroke="#BFADEA" stroke-width="4" stroke-linecap="round"/>
<path fill-rule="evenodd" clip-rule="evenodd" d="M246.857 854.337C259.301 854.172 271.835 854.664 284.222 854.099C285.95 837.234 285.193 819.184 284.616 802.163C272.053 801.372 258.993 801.315 246.538 802.163C245.938 819.406 245.282 837.29 246.857 854.337Z" stroke="#BFADEA" stroke-width="4" stroke-linecap="round"/>
<path fill-rule="evenodd" clip-rule="evenodd" d="M618.822 854.337C631.538 854.17 644.344 854.664 657.001 854.099C658.729 837.234 657.972 819.184 657.395 802.163C644.56 801.628 630.794 800.797 618.339 802.555C618.126 819.678 617.125 837.563 618.822 854.337Z" stroke="#BFADEA" stroke-width="4" stroke-linecap="round"/>
<path fill-rule="evenodd" clip-rule="evenodd" d="M687.193 854.337C699.908 854.17 712.714 854.664 725.371 854.099C727.099 837.234 726.342 819.184 725.765 802.163C712.931 801.628 699.164 800.797 686.709 802.555C686.496 819.678 685.495 837.563 687.193 854.337Z" stroke="#BFADEA" stroke-width="4" stroke-linecap="round"/>
<path fill-rule="evenodd" clip-rule="evenodd" d="M179.301 850.286C176.137 837.765 177.537 821.055 178.57 807.658C187.618 808.92 197.427 807.311 206.478 808.643C207.278 822.23 207.326 836.311 206.478 849.791C197.512 850.888 188.346 849.994 179.301 850.286Z" stroke="#BFADEA" stroke-width="4" stroke-linecap="round"/>
<path fill-rule="evenodd" clip-rule="evenodd" d="M250.927 850.286C260.492 849.95 270.354 850.953 279.732 849.791C280.531 836.205 280.58 822.123 279.732 808.643C270.424 807.875 260.623 807.776 251.422 808.643C250.291 822.431 251.24 836.42 250.927 850.286Z" stroke="#BFADEA" stroke-width="4" stroke-linecap="round"/>
<path fill-rule="evenodd" clip-rule="evenodd" d="M625.334 850.286C620.402 839.624 622.957 820.762 624.05 808.433C632.925 807.43 643.097 807.759 651.863 809.037C652.461 822.426 652.308 836.023 651.954 849.399C643.493 851.402 634.136 849.739 625.334 850.286Z" stroke="#BFADEA" stroke-width="4" stroke-linecap="round"/>
<path fill-rule="evenodd" clip-rule="evenodd" d="M693.704 850.286C688.145 839.659 692.581 822.154 691.501 809.037C701.115 807.603 712.359 807.528 721.859 809.037C722.457 822.426 722.304 836.023 721.95 849.399C712.948 851.41 703.048 849.735 693.704 850.286Z" stroke="#BFADEA" stroke-width="4" stroke-linecap="round"/>
<path d="M152.442 661.489C146.599 647.562 161.354 639.887 169.162 631.147C170.347 615.311 168.632 599.076 170.029 583.384C188.115 577.054 197.218 597.006 193.138 612.061" stroke="#BFADEA" stroke-width="4" stroke-linecap="round"/>
<path d="M193.138 612.061C244.416 612.061 295.693 612.061 346.97 612.061" stroke="#BFADEA" stroke-width="4" stroke-linecap="round"/>
<path d="M346.971 612.061C345.978 602.988 350.537 586.521 338.346 585.247C337.847 583.355 337.886 580.903 339.557 579.271C341.545 578.843 344.444 578.934 346.157 578.433" stroke="#BFADEA" stroke-width="4" stroke-linecap="round"/>
<path d="M346.157 578.435C345.683 562.112 347.146 545.611 345.343 529.412" stroke="#BFADEA" stroke-width="4" stroke-linecap="round"/>
<path d="M345.343 529.412C337.824 518.071 329.497 501.53 331.583 486.796C336.637 485.72 342.058 487.496 346.971 485.657" stroke="#BFADEA" stroke-width="4" stroke-linecap="round"/>
<path d="M346.97 485.657C354.047 476.304 366.57 478.064 377.086 476.744" stroke="#BFADEA" stroke-width="4" stroke-linecap="round"/>
<path d="M377.086 476.744C377.086 471.342 377.086 465.939 377.086 460.538" stroke="#BFADEA" stroke-width="4" stroke-linecap="round"/>
<path d="M377.086 460.538C374.226 455.073 366.469 453.756 364.504 447.614C368.763 445.35 374.372 448.183 378.714 445.953" stroke="#BFADEA" stroke-width="4" stroke-linecap="round"/>
<path d="M378.714 445.953C377.618 431.155 379.808 415.624 378.307 400.577" stroke="#BFADEA" stroke-width="4" stroke-linecap="round"/>
<path d="M378.307 400.577C375.093 400.551 372.362 400.719 370.651 400.337C368.919 382.932 369.679 364.342 370.255 346.782C373.497 345.537 377.296 347.295 380.34 345.477" stroke="#BFADEA" stroke-width="4" stroke-linecap="round"/>
<path d="M380.342 345.477C379.213 341.116 378.78 335.381 380.418 331.223C385.751 330.271 391.313 331.579 396.62 330.487" stroke="#BFADEA" stroke-width="4" stroke-linecap="round"/>
<path d="M396.62 330.487C396.62 327.832 396.62 325.954 396.62 324.41" stroke="#BFADEA" stroke-width="4" stroke-linecap="round"/>
<path d="M396.62 324.41C394.331 320.998 392.383 317.631 391.737 313.471" stroke="#BFADEA" stroke-width="4" stroke-linecap="round"/>
<path d="M391.737 313.471C391.393 313.262 391.048 313.051 390.705 312.842C389.507 309.162 390.036 304.906 391.403 301.383C395.505 300.475 399.775 301.101 403.946 300.91" stroke="#BFADEA" stroke-width="4" stroke-linecap="round"/>
<path d="M403.945 300.911C403.945 283.625 403.945 266.34 403.945 249.053" stroke="#BFADEA" stroke-width="4" stroke-linecap="round"/>
<path d="M403.946 249.053C401.639 249.188 399.721 248.936 398.325 248.167C396.689 240.936 397.278 232.606 397.937 225.245C398.657 224.881 399.246 224.388 399.832 223.89C401.572 223.463 403.231 222.954 403.946 221.503" stroke="#BFADEA" stroke-width="4" stroke-linecap="round"/>
<path d="M403.946 221.503C402.083 204.954 415.997 189.552 432.433 189.902" stroke="#BFADEA" stroke-width="4" stroke-linecap="round"/>
<path d="M432.433 189.902C430.59 180.487 432.127 170.402 431.619 160.732" stroke="#BFADEA" stroke-width="4" stroke-linecap="round"/>
<path d="M431.619 160.732C430.612 160.793 429.925 160.648 429.254 160.492C427.222 153.703 434.51 146.881 440.572 144.526" stroke="#BFADEA" stroke-width="4" stroke-linecap="round"/>
<path d="M440.572 144.526C438.868 132.226 439.959 119.203 439.996 106.682C440.603 105.956 441.809 105.875 443.014 105.632" stroke="#BFADEA" stroke-width="4" stroke-linecap="round"/>
<path d="M443.014 105.632C443.594 99.7934 441.858 93.3565 443.905 87.8822C444.911 87.2631 446.478 87.2032 447.898 86.9957" stroke="#BFADEA" stroke-width="4" stroke-linecap="round"/>
<path d="M447.898 86.9957C447.875 82.369 448.223 77.7017 447.084 73.2209" stroke="#BFADEA" stroke-width="4" stroke-linecap="round"/>
<path d="M447.084 73.2209C444.911 72.6844 443.187 71.6991 441.759 70.4189C441.372 68.5196 441.359 66.3496 441.876 64.7906C442.926 63.6805 444.085 62.6725 444.642 61.0666" stroke="#BFADEA" stroke-width="4" stroke-linecap="round"/>
<path d="M556.964 485.657C559.723 486.55 562.736 486.068 565.455 486.836C565.691 500.034 558.878 512.895 552.894 523.74" stroke="#BFADEA" stroke-width="4" stroke-linecap="round"/>
<path d="M552.894 523.74C551.14 541.91 552.52 560.498 552.08 578.84" stroke="#BFADEA" stroke-width="4" stroke-linecap="round"/>
<path d="M552.081 578.84C554.387 578.814 556.305 578.778 557.702 579.078C558.725 580.703 558.654 583.692 557.7 585.249C550.493 590.169 550.402 604.174 551.267 612.872" stroke="#BFADEA" stroke-width="4" stroke-linecap="round"/>
<path d="M551.266 612.872C562.624 611.023 574.651 612.57 586.265 612.061" stroke="#BFADEA" stroke-width="4" stroke-linecap="round"/>
<path d="M586.266 612.061C605.258 612.061 624.248 612.061 643.241 612.061" stroke="#BFADEA" stroke-width="4" stroke-linecap="round"/>
<path d="M643.24 612.061C656.263 612.061 669.286 612.061 682.309 612.061" stroke="#BFADEA" stroke-width="4" stroke-linecap="round"/>
<path d="M749.051 662.299C749.323 662.57 749.593 662.839 749.865 663.109" stroke="#BFADEA" stroke-width="4" stroke-linecap="round"/>
<path d="M749.051 670.402C749.051 697.952 749.051 725.502 749.051 753.051" stroke="#BFADEA" stroke-width="4" stroke-linecap="round"/>
<path d="M749.051 753.051C749.118 755.819 749.158 758.56 748.237 760.344" stroke="#BFADEA" stroke-width="4" stroke-linecap="round"/>
<path d="M748.237 760.344C749.536 768.627 749.627 778.01 748.237 786.273" stroke="#BFADEA" stroke-width="4" stroke-linecap="round"/>
<path d="M748.237 786.273C749.189 788.161 749.072 791.057 748.237 792.755" stroke="#BFADEA" stroke-width="4" stroke-linecap="round"/>
<path d="M748.237 792.755C750.127 817.568 748.515 843.045 749.051 868.112" stroke="#BFADEA" stroke-width="4" stroke-linecap="round"/>
<path d="M749.051 868.112C748.701 872.233 749.744 876.647 748.554 880.582C683.155 881.733 617.556 880.749 552.08 881.076" stroke="#BFADEA" stroke-width="4" stroke-linecap="round"/>
<path d="M552.08 881.077C550.057 883.514 552.619 886.458 552.08 889.179" stroke="#BFADEA" stroke-width="4" stroke-linecap="round"/>
<path d="M449.525 61.0666C447.898 61.0666 446.27 61.0666 444.642 61.0666" stroke="#BFADEA" stroke-width="4" stroke-linecap="round"/>
<path d="M447.084 73.2209C449.257 72.6828 450.986 71.7024 452.397 70.4075C453.102 68.0447 453.037 66.6559 452.84 64.2396C452.3 63.256 450.784 62.3128 449.526 61.0666" stroke="#BFADEA" stroke-width="4" stroke-linecap="round"/>
<path d="M403.946 249.053C403.982 246.389 403.689 243.394 404.449 241.451C411.645 237.121 419.168 232.839 427.278 230.685" stroke="#BFADEA" stroke-width="4" stroke-linecap="round"/>
<path d="M427.278 230.687C442.915 228.211 459.55 230.295 475.571 229.606" stroke="#BFADEA" stroke-width="4" stroke-linecap="round"/>
<path d="M495.106 249.053C497.876 249.111 500.686 249.207 502.355 248.167C502.166 241.992 505.189 234.223 501.197 228.394C498.959 226.464 495.433 227.044 494.292 223.934" stroke="#BFADEA" stroke-width="4" stroke-linecap="round"/>
<path d="M741.726 661.489C743.554 662.369 746.425 662.213 749.051 662.299" stroke="#BFADEA" stroke-width="4" stroke-linecap="round"/>
<path d="M749.051 662.299C753.966 645.695 738.589 637.602 730.541 625.927C729.893 610.828 730.791 595.595 730.091 580.536C710.559 572.986 695.744 594.049 701.029 612.061" stroke="#BFADEA" stroke-width="4" stroke-linecap="round"/>
<path d="M701.029 629.077C697.567 630.249 693.077 630.46 689.634 629.077" stroke="#BFADEA" stroke-width="4" stroke-linecap="round"/>
<path d="M689.634 629.077C687.228 630.197 683.886 630.371 681.495 629.077" stroke="#BFADEA" stroke-width="4" stroke-linecap="round"/>
<path d="M681.495 629.077C677.497 630.27 672.449 630.471 668.472 629.077" stroke="#BFADEA" stroke-width="4" stroke-linecap="round"/>
<path d="M668.472 629.077C666.576 630.025 663.667 629.909 661.961 629.077" stroke="#BFADEA" stroke-width="4" stroke-linecap="round"/>
<path d="M661.961 629.077C657.963 630.27 652.915 630.471 648.938 629.077" stroke="#BFADEA" stroke-width="4" stroke-linecap="round"/>
<path d="M641.07 628.807C637.647 630.395 632.928 630.421 629.404 629.077" stroke="#BFADEA" stroke-width="4" stroke-linecap="round"/>
<path d="M629.404 629.077C626.998 630.197 623.656 630.371 621.264 629.077" stroke="#BFADEA" stroke-width="4" stroke-linecap="round"/>
<path d="M574.328 661.759C629.833 662.474 686.299 663.022 741.726 661.489" stroke="#BFADEA" stroke-width="4" stroke-linecap="round"/>
<path d="M741.726 661.489C738.7 643.998 720.157 626.677 701.029 629.077" stroke="#BFADEA" stroke-width="4" stroke-linecap="round"/>
<path d="M152.442 661.489C154.338 662.437 157.249 662.32 158.953 661.489" stroke="#BFADEA" stroke-width="4" stroke-linecap="round"/>
<path d="M158.953 661.489C157.734 647.16 174.646 641.066 181.268 630.35C185.113 629.081 189.505 630.969 193.138 629.077" stroke="#BFADEA" stroke-width="4" stroke-linecap="round"/>
<path d="M158.953 661.489C213.958 662.84 269.913 662.836 324.995 661.489" stroke="#BFADEA" stroke-width="4" stroke-linecap="round"/>
<path d="M324.995 661.489C332.012 659.703 339.697 661.145 346.971 660.679" stroke="#BFADEA" stroke-width="4" stroke-linecap="round"/>
<path d="M346.97 660.679C346.97 650.415 346.97 640.151 346.97 629.888" stroke="#BFADEA" stroke-width="4" stroke-linecap="round"/>
<path d="M346.971 629.888C342.408 629.427 337.423 630.862 333.134 629.077" stroke="#BFADEA" stroke-width="4" stroke-linecap="round"/>
<path d="M333.134 629.077C330.438 630.538 327.125 629.594 324.181 629.888" stroke="#BFADEA" stroke-width="4" stroke-linecap="round"/>
<path d="M324.181 629.888C320.383 629.888 316.583 629.888 312.786 629.888" stroke="#BFADEA" stroke-width="4" stroke-linecap="round"/>
<path d="M312.786 629.888C309.836 629.554 306.513 630.683 303.832 629.077" stroke="#BFADEA" stroke-width="4" stroke-linecap="round"/>
<path d="M303.832 629.077C300.37 630.247 295.882 630.46 292.438 629.077" stroke="#BFADEA" stroke-width="4" stroke-linecap="round"/>
<path d="M292.438 629.077C290.032 630.197 286.69 630.371 284.298 629.077" stroke="#BFADEA" stroke-width="4" stroke-linecap="round"/>
<path d="M284.298 629.077C280.836 630.247 276.348 630.46 272.903 629.077" stroke="#BFADEA" stroke-width="4" stroke-linecap="round"/>
<path d="M377.086 460.538C426.428 458.648 476.435 460.267 526.035 459.728" stroke="#BFADEA" stroke-width="4" stroke-linecap="round"/>
<path d="M526.035 459.728C529.844 456.485 535.993 452.907 536.357 447.57C531.638 445.849 526.16 447.194 521.151 446.763" stroke="#BFADEA" stroke-width="4" stroke-linecap="round"/>
<path d="M431.619 160.732C442.472 160.732 453.323 160.732 464.176 160.732" stroke="#BFADEA" stroke-width="4" stroke-linecap="round"/>
<path d="M464.176 160.732C465.184 160.793 465.871 160.648 466.542 160.492C467.059 159.959 467.206 159.09 467.333 158.204C465.544 151.491 460.328 147.493 455.223 143.716" stroke="#BFADEA" stroke-width="4" stroke-linecap="round"/>
<path d="M443.014 105.632C445.988 105.451 449.063 106.052 451.967 105.227" stroke="#BFADEA" stroke-width="4" stroke-linecap="round"/>
<path d="M451.967 105.227C451.697 99.6054 452.493 93.7859 451.588 88.2776C450.971 87.8384 449.607 87.2566 447.898 86.9957" stroke="#BFADEA" stroke-width="4" stroke-linecap="round"/>
<path d="M440.572 144.526C445.148 142.833 450.395 144.142 455.223 143.716" stroke="#BFADEA" stroke-width="4" stroke-linecap="round"/>
<path d="M455.223 143.716C453.209 131.386 459.355 114.905 451.967 105.227" stroke="#BFADEA" stroke-width="4" stroke-linecap="round"/>
<path d="M432.433 189.902C442.379 191.21 453.436 191.278 463.362 189.902" stroke="#BFADEA" stroke-width="4" stroke-linecap="round"/>
<path d="M463.362 189.902C465.205 180.487 463.668 170.402 464.176 160.732" stroke="#BFADEA" stroke-width="4" stroke-linecap="round"/>
<path d="M403.945 221.503C431.616 212.454 468.358 207.662 494.291 223.934" stroke="#BFADEA" stroke-width="4" stroke-linecap="round"/>
<path d="M494.292 223.934C496.416 206.26 481.93 188.646 463.362 189.902" stroke="#BFADEA" stroke-width="4" stroke-linecap="round"/>
<path d="M427.549 300.101C430.781 301.645 434.647 300.581 438.13 300.911" stroke="#BFADEA" stroke-width="4" stroke-linecap="round"/>
<path d="M438.13 300.911C439.714 287.255 429.254 223.77 457.199 238.179C460.263 239.759 461.07 242.062 463.942 246.047C464.484 264.316 464.026 282.626 464.178 300.911" stroke="#BFADEA" stroke-width="4" stroke-linecap="round"/>
<path d="M427.278 230.687C427.909 253.782 427.369 276.971 427.549 300.101" stroke="#BFADEA" stroke-width="4" stroke-linecap="round"/>
<path d="M495.106 300.911C495.106 283.625 495.106 266.34 495.106 249.053" stroke="#BFADEA" stroke-width="4" stroke-linecap="round"/>
<path d="M495.106 249.053C495.075 246.382 495.343 243.415 494.617 241.435C488.472 237.226 483.12 230.828 475.571 229.606" stroke="#BFADEA" stroke-width="4" stroke-linecap="round"/>
<path d="M475.571 229.606C475.571 253.375 475.571 277.142 475.571 300.911" stroke="#BFADEA" stroke-width="4" stroke-linecap="round"/>
<path d="M403.945 300.911C405.573 300.911 407.201 300.911 408.829 300.911" stroke="#BFADEA" stroke-width="4" stroke-linecap="round"/>
<path d="M408.829 300.911C408.836 287.409 408.816 273.906 408.837 260.405C410.25 257.427 412.002 252.124 416.491 254.411C417.641 255.407 418.7 256.514 419.859 257.519C422.29 271.483 420.481 285.924 421.038 300.101" stroke="#BFADEA" stroke-width="4" stroke-linecap="round"/>
<path d="M421.038 300.101C422.934 301.047 425.845 300.932 427.549 300.101" stroke="#BFADEA" stroke-width="4" stroke-linecap="round"/>
<path d="M438.131 300.911C446.812 300.911 455.495 300.911 464.176 300.911" stroke="#BFADEA" stroke-width="4" stroke-linecap="round"/>
<path d="M408.829 300.911C412.853 300.479 417.288 301.848 421.038 300.101" stroke="#BFADEA" stroke-width="4" stroke-linecap="round"/>
<path d="M491.036 300.101C489.598 285.01 494.213 268.323 488.13 254.377C486.725 253.97 485.353 254.138 484.186 254.414C475.978 267.421 482.584 285.782 480.455 300.911" stroke="#BFADEA" stroke-width="4" stroke-linecap="round"/>
<path d="M391.737 313.471C429.625 312.797 467.805 312.795 505.686 313.471" stroke="#BFADEA" stroke-width="4" stroke-linecap="round"/>
<path d="M505.687 313.471C506.03 313.262 506.375 313.051 506.72 312.842C507.725 309.351 507.409 305.383 507.075 301.798C503.491 300.005 499.03 301.329 495.106 300.911" stroke="#BFADEA" stroke-width="4" stroke-linecap="round"/>
<path d="M495.106 300.911C493.43 300.958 492.223 300.54 491.036 300.101" stroke="#BFADEA" stroke-width="4" stroke-linecap="round"/>
<path d="M491.036 300.101C487.804 301.645 483.938 300.581 480.455 300.911" stroke="#BFADEA" stroke-width="4" stroke-linecap="round"/>
<path d="M480.455 300.911C478.827 300.911 477.199 300.911 475.571 300.911" stroke="#BFADEA" stroke-width="4" stroke-linecap="round"/>
<path d="M475.571 300.911C471.773 300.911 467.974 300.911 464.176 300.911" stroke="#BFADEA" stroke-width="4" stroke-linecap="round"/>
<path d="M396.62 324.41C431.526 321.984 467.544 325.217 502.431 322.789" stroke="#BFADEA" stroke-width="4" stroke-linecap="round"/>
<path d="M502.431 322.789C503.439 319.597 505.276 316.923 505.687 313.471" stroke="#BFADEA" stroke-width="4" stroke-linecap="round"/>
<path d="M396.62 330.487C432.082 331.43 467.717 330.623 503.245 330.892" stroke="#BFADEA" stroke-width="4" stroke-linecap="round"/>
<path d="M503.245 330.892C503.313 327.244 503.352 324.659 502.431 322.789" stroke="#BFADEA" stroke-width="4" stroke-linecap="round"/>
<path d="M380.342 345.477C427.514 347.365 475.351 345.749 522.779 346.287" stroke="#BFADEA" stroke-width="4" stroke-linecap="round"/>
<path d="M522.779 346.287C522.211 341.361 523.935 335.692 521.889 331.223C515.729 330.5 509.45 331.082 503.245 330.892" stroke="#BFADEA" stroke-width="4" stroke-linecap="round"/>
<path d="M378.307 400.577C379.399 390.43 378.129 380.018 378.955 369.862C425.741 368.126 473.712 368.906 520.655 369.47C522.299 379.692 519.781 390.553 521.965 400.577" stroke="#BFADEA" stroke-width="4" stroke-linecap="round"/>
<path d="M521.965 400.577C523.852 400.551 526.816 400.719 528.402 400.337C530.129 382.93 529.372 364.342 528.794 346.782C527.063 346.344 524.885 346.352 522.779 346.287" stroke="#BFADEA" stroke-width="4" stroke-linecap="round"/>
<path d="M378.714 445.953C425.886 447.841 473.724 446.225 521.151 446.763" stroke="#BFADEA" stroke-width="4" stroke-linecap="round"/>
<path d="M521.151 446.763C521.69 431.423 520.07 415.641 521.965 400.577" stroke="#BFADEA" stroke-width="4" stroke-linecap="round"/>
<path d="M377.086 476.744C426.101 478.092 476.226 478.095 525.221 476.744" stroke="#BFADEA" stroke-width="4" stroke-linecap="round"/>
<path d="M525.221 476.743C526.953 471.376 525.602 465.349 526.035 459.727" stroke="#BFADEA" stroke-width="4" stroke-linecap="round"/>
<path d="M346.97 485.657C416.718 487.005 487.233 487.008 556.964 485.657" stroke="#BFADEA" stroke-width="4" stroke-linecap="round"/>
<path d="M556.964 485.657C549.101 477.116 536.113 477.909 525.221 476.744" stroke="#BFADEA" stroke-width="4" stroke-linecap="round"/>
<path d="M345.343 529.412C347.037 522.591 345.755 515.337 346.157 508.345" stroke="#BFADEA" stroke-width="4" stroke-linecap="round"/>
<path d="M346.157 508.345C346.417 505.014 345.641 501.485 346.529 498.271C414.608 497.357 483.061 497.798 551.191 498.049C552.925 501.081 551.696 504.976 552.082 508.345" stroke="#BFADEA" stroke-width="4" stroke-linecap="round"/>
<path d="M552.08 508.345C552.561 513.427 551.078 518.932 552.894 523.74" stroke="#BFADEA" stroke-width="4" stroke-linecap="round"/>
<path d="M346.157 508.345C349.684 508.345 353.21 508.345 356.738 508.345" stroke="#BFADEA" stroke-width="4" stroke-linecap="round"/>
<path d="M356.738 508.345C368.349 508.878 380.403 507.274 391.737 509.155" stroke="#BFADEA" stroke-width="4" stroke-linecap="round"/>
<path d="M391.737 509.155C395.199 507.983 399.689 507.773 403.132 509.155" stroke="#BFADEA" stroke-width="4" stroke-linecap="round"/>
<path d="M403.131 509.155C434.025 507.27 465.584 508.881 496.733 508.345" stroke="#BFADEA" stroke-width="4" stroke-linecap="round"/>
<path d="M346.157 578.434C349.605 579.222 353.223 578.665 356.738 578.84" stroke="#BFADEA" stroke-width="4" stroke-linecap="round"/>
<path d="M356.738 578.84C356.738 555.341 356.738 531.843 356.738 508.345" stroke="#BFADEA" stroke-width="4" stroke-linecap="round"/>
<path d="M356.738 578.84C368.12 578.433 379.661 579.734 390.923 578.029" stroke="#BFADEA" stroke-width="4" stroke-linecap="round"/>
<path d="M390.923 578.029C391.813 576.948 392.194 575.869 392.551 574.788" stroke="#BFADEA" stroke-width="4" stroke-linecap="round"/>
<path d="M392.551 574.788C396.597 575.433 399.946 573.741 403.403 572.087" stroke="#BFADEA" stroke-width="4" stroke-linecap="round"/>
<path d="M391.737 509.155C393.623 530.726 392.017 552.962 392.55 574.788" stroke="#BFADEA" stroke-width="4" stroke-linecap="round"/>
<path d="M403.404 572.087C403.607 572.148 403.812 572.208 404.016 572.268C432.969 560.642 463.556 557.474 496.733 571.547" stroke="#BFADEA" stroke-width="4" stroke-linecap="round"/>
<path d="M403.132 509.155C403.312 530.124 402.769 551.157 403.404 572.087" stroke="#BFADEA" stroke-width="4" stroke-linecap="round"/>
<path d="M496.733 571.547C499.773 573.505 503.689 573.68 507.314 573.978" stroke="#BFADEA" stroke-width="4" stroke-linecap="round"/>
<path d="M507.314 509.155C504.083 507.611 500.217 508.674 496.733 508.345" stroke="#BFADEA" stroke-width="4" stroke-linecap="round"/>
<path d="M496.733 508.345C496.733 529.412 496.733 550.48 496.733 571.547" stroke="#BFADEA" stroke-width="4" stroke-linecap="round"/>
<path d="M541.499 509.155C530.467 507.839 518.327 507.782 507.314 509.155" stroke="#BFADEA" stroke-width="4" stroke-linecap="round"/>
<path d="M507.314 509.155C508.661 530.401 508.678 552.752 507.314 573.978" stroke="#BFADEA" stroke-width="4" stroke-linecap="round"/>
<path d="M552.081 508.345C548.594 508.738 544.715 507.465 541.5 509.155" stroke="#BFADEA" stroke-width="4" stroke-linecap="round"/>
<path d="M541.5 509.155C541.5 532.248 541.5 555.341 541.5 578.435" stroke="#BFADEA" stroke-width="4" stroke-linecap="round"/>
<path d="M390.923 578.029C399.954 579.637 409.492 578.908 418.596 578.029" stroke="#BFADEA" stroke-width="4" stroke-linecap="round"/>
<path d="M418.596 578.029C419.405 576.848 419.986 576.055 420.555 575.284C441.313 567.88 460.994 568.512 481.832 575.023C482.522 575.629 483.022 576.83 483.71 578.029" stroke="#BFADEA" stroke-width="4" stroke-linecap="round"/>
<path d="M483.71 578.029C492.833 578.532 502.358 579.899 511.384 578.029" stroke="#BFADEA" stroke-width="4" stroke-linecap="round"/>
<path d="M511.384 578.029C510.835 575.608 508.949 575.111 507.314 573.978" stroke="#BFADEA" stroke-width="4" stroke-linecap="round"/>
<path d="M418.596 578.029C440.053 579.363 462.27 579.386 483.71 578.029" stroke="#BFADEA" stroke-width="4" stroke-linecap="round"/>
<path d="M346.97 612.061C346.97 613.142 346.97 614.222 346.97 615.303" stroke="#BFADEA" stroke-width="4" stroke-linecap="round"/>
<path d="M346.97 615.303C346.97 620.164 346.97 625.026 346.97 629.888" stroke="#BFADEA" stroke-width="4" stroke-linecap="round"/>
<path d="M346.97 660.679C351.312 660.679 355.652 660.679 359.993 660.679" stroke="#BFADEA" stroke-width="4" stroke-linecap="round"/>
<path d="M359.994 660.679C360.326 637.112 359.331 613.249 360.49 589.868C370.759 589.286 381.669 588.607 391.737 590.184" stroke="#BFADEA" stroke-width="4" stroke-linecap="round"/>
<path d="M391.737 590.184C396.272 588.97 401.873 588.785 406.387 590.184" stroke="#BFADEA" stroke-width="4" stroke-linecap="round"/>
<path d="M406.387 590.184C435.868 588.839 466.458 588.829 495.919 590.184" stroke="#BFADEA" stroke-width="4" stroke-linecap="round"/>
<path d="M495.919 590.184C501.311 588.459 507.363 589.804 513.012 589.373" stroke="#BFADEA" stroke-width="4" stroke-linecap="round"/>
<path d="M513.012 589.373C522.302 589.963 532.333 588.192 541.169 590.26C543.389 613.225 541.857 637.214 542.313 660.679" stroke="#BFADEA" stroke-width="4" stroke-linecap="round"/>
<path d="M550.452 660.678C550.985 650.2 549.38 639.28 551.266 629.077" stroke="#BFADEA" stroke-width="4" stroke-linecap="round"/>
<path d="M551.266 629.077C550.047 624.564 549.862 618.986 551.266 614.492" stroke="#BFADEA" stroke-width="4" stroke-linecap="round"/>
<path d="M552.081 578.84C548.566 578.631 544.942 579.298 541.5 578.434" stroke="#BFADEA" stroke-width="4" stroke-linecap="round"/>
<path d="M541.499 578.434C531.552 578.984 521.28 579.431 511.384 578.029" stroke="#BFADEA" stroke-width="4" stroke-linecap="round"/>
<path d="M359.993 660.679C370.519 660.149 381.488 661.747 391.737 659.868" stroke="#BFADEA" stroke-width="4" stroke-linecap="round"/>
<path d="M391.737 659.868C396.272 661.082 401.873 661.267 406.387 659.868" stroke="#BFADEA" stroke-width="4" stroke-linecap="round"/>
<path d="M391.737 590.184C391.737 613.411 391.737 636.641 391.737 659.868" stroke="#BFADEA" stroke-width="4" stroke-linecap="round"/>
<path d="M406.387 659.868C435.868 661.213 466.458 661.223 495.919 659.868" stroke="#BFADEA" stroke-width="4" stroke-linecap="round"/>
<path d="M406.387 590.184C406.387 613.411 406.387 636.641 406.387 659.868" stroke="#BFADEA" stroke-width="4" stroke-linecap="round"/>
<path d="M495.919 659.868C501.311 661.593 507.363 660.247 513.012 660.679" stroke="#BFADEA" stroke-width="4" stroke-linecap="round"/>
<path d="M495.919 590.184C497.287 613.073 497.256 636.901 495.919 659.868" stroke="#BFADEA" stroke-width="4" stroke-linecap="round"/>
<path d="M513.012 660.679C522.779 660.679 532.546 660.679 542.313 660.679" stroke="#BFADEA" stroke-width="4" stroke-linecap="round"/>
<path d="M513.012 589.373C513.012 613.142 513.012 636.91 513.012 660.679" stroke="#BFADEA" stroke-width="4" stroke-linecap="round"/>
<path d="M193.138 615.303C196.666 615.303 200.192 615.303 203.719 615.303" stroke="#BFADEA" stroke-width="4" stroke-linecap="round"/>
<path d="M203.719 615.302C206.669 615.636 209.991 614.507 212.673 616.113" stroke="#BFADEA" stroke-width="4" stroke-linecap="round"/>
<path d="M212.673 616.113C216.135 614.941 220.623 614.73 224.068 616.113" stroke="#BFADEA" stroke-width="4" stroke-linecap="round"/>
<path d="M224.068 616.113C226.763 614.653 230.076 615.596 233.021 615.302" stroke="#BFADEA" stroke-width="4" stroke-linecap="round"/>
<path d="M233.021 615.303C236.819 615.303 240.618 615.303 244.416 615.303" stroke="#BFADEA" stroke-width="4" stroke-linecap="round"/>
<path d="M244.416 615.303C247.129 615.303 249.841 615.303 252.555 615.303" stroke="#BFADEA" stroke-width="4" stroke-linecap="round"/>
<path d="M252.555 615.303C256.353 615.303 260.152 615.303 263.95 615.303" stroke="#BFADEA" stroke-width="4" stroke-linecap="round"/>
<path d="M263.95 615.302C266.9 615.636 270.222 614.507 272.903 616.113" stroke="#BFADEA" stroke-width="4" stroke-linecap="round"/>
<path d="M193.138 612.061C193.138 613.142 193.138 614.222 193.138 615.303" stroke="#BFADEA" stroke-width="4" stroke-linecap="round"/>
<path d="M551.266 614.492C554.198 616.349 558.121 614.166 561.034 616.113" stroke="#BFADEA" stroke-width="4" stroke-linecap="round"/>
<path d="M561.034 616.113C563.728 614.653 567.04 615.594 569.987 615.302" stroke="#BFADEA" stroke-width="4" stroke-linecap="round"/>
<path d="M551.266 612.872C551.266 613.411 551.266 613.953 551.266 614.492" stroke="#BFADEA" stroke-width="4" stroke-linecap="round"/>
<path d="M586.266 615.303C587.351 615.303 588.436 615.303 589.521 615.303" stroke="#BFADEA" stroke-width="4" stroke-linecap="round"/>
<path d="M589.521 615.303C593.319 615.303 597.118 615.303 600.916 615.303" stroke="#BFADEA" stroke-width="4" stroke-linecap="round"/>
<path d="M600.916 615.302C603.866 615.636 607.188 614.507 609.87 616.113" stroke="#BFADEA" stroke-width="4" stroke-linecap="round"/>
<path d="M609.869 616.113C613.332 614.941 617.821 614.73 621.264 616.113" stroke="#BFADEA" stroke-width="4" stroke-linecap="round"/>
<path d="M586.266 612.061C586.266 613.142 586.266 614.222 586.266 615.303" stroke="#BFADEA" stroke-width="4" stroke-linecap="round"/>
<path d="M643.24 615.303C645.41 615.303 647.582 615.303 649.752 615.303" stroke="#BFADEA" stroke-width="4" stroke-linecap="round"/>
<path d="M649.752 615.303C653.55 615.303 657.349 615.303 661.147 615.303" stroke="#BFADEA" stroke-width="4" stroke-linecap="round"/>
<path d="M643.24 612.061C643.24 613.142 643.24 614.222 643.24 615.303" stroke="#BFADEA" stroke-width="4" stroke-linecap="round"/>
<path d="M701.029 615.303C701.029 614.222 701.029 613.142 701.029 612.061" stroke="#BFADEA" stroke-width="4" stroke-linecap="round"/>
<path d="M701.029 612.061C694.79 612.061 688.548 612.061 682.309 612.061" stroke="#BFADEA" stroke-width="4" stroke-linecap="round"/>
<path d="M682.309 612.061C682.309 613.142 682.309 614.222 682.309 615.303" stroke="#BFADEA" stroke-width="4" stroke-linecap="round"/>
<path d="M193.138 629.077C196.601 630.249 201.089 630.46 204.533 629.077" stroke="#BFADEA" stroke-width="4" stroke-linecap="round"/>
<path d="M193.138 615.303C193.138 619.894 193.138 624.486 193.138 629.077" stroke="#BFADEA" stroke-width="4" stroke-linecap="round"/>
<path d="M204.533 629.077C206.939 630.197 210.281 630.371 212.673 629.077" stroke="#BFADEA" stroke-width="4" stroke-linecap="round"/>
<path d="M203.719 615.303C204.181 619.847 202.741 624.807 204.533 629.077" stroke="#BFADEA" stroke-width="4" stroke-linecap="round"/>
<path d="M212.673 629.077C216.135 630.247 220.623 630.46 224.068 629.077" stroke="#BFADEA" stroke-width="4" stroke-linecap="round"/>
<path d="M212.673 616.113C212.673 620.435 212.673 624.755 212.673 629.077" stroke="#BFADEA" stroke-width="4" stroke-linecap="round"/>
<path d="M224.068 629.077C226.763 630.538 230.076 629.594 233.021 629.888" stroke="#BFADEA" stroke-width="4" stroke-linecap="round"/>
<path d="M224.068 616.113C224.068 620.435 224.068 624.755 224.068 629.077" stroke="#BFADEA" stroke-width="4" stroke-linecap="round"/>
<path d="M233.021 629.888C236.506 629.494 240.387 630.768 243.602 629.077" stroke="#BFADEA" stroke-width="4" stroke-linecap="round"/>
<path d="M233.021 615.303C233.021 620.164 233.021 625.026 233.021 629.888" stroke="#BFADEA" stroke-width="4" stroke-linecap="round"/>
<path d="M243.602 629.077C246.297 630.538 249.61 629.594 252.555 629.888" stroke="#BFADEA" stroke-width="4" stroke-linecap="round"/>
<path d="M244.416 615.303C243.953 619.847 245.394 624.807 243.602 629.077" stroke="#BFADEA" stroke-width="4" stroke-linecap="round"/>
<path d="M252.555 629.888C256.353 629.888 260.152 629.888 263.95 629.888" stroke="#BFADEA" stroke-width="4" stroke-linecap="round"/>
<path d="M252.555 615.303C252.555 620.164 252.555 625.026 252.555 629.888" stroke="#BFADEA" stroke-width="4" stroke-linecap="round"/>
<path d="M263.95 629.888C266.9 629.554 270.222 630.683 272.903 629.077" stroke="#BFADEA" stroke-width="4" stroke-linecap="round"/>
<path d="M263.95 615.303C263.95 620.164 263.95 625.026 263.95 629.888" stroke="#BFADEA" stroke-width="4" stroke-linecap="round"/>
<path d="M284.298 616.113C280.836 614.941 276.348 614.73 272.903 616.113" stroke="#BFADEA" stroke-width="4" stroke-linecap="round"/>
<path d="M272.903 616.113C272.903 620.435 272.903 624.755 272.903 629.077" stroke="#BFADEA" stroke-width="4" stroke-linecap="round"/>
<path d="M293.252 615.302C290.302 615.636 286.979 614.507 284.298 616.113" stroke="#BFADEA" stroke-width="4" stroke-linecap="round"/>
<path d="M284.298 616.113C284.298 620.435 284.298 624.755 284.298 629.077" stroke="#BFADEA" stroke-width="4" stroke-linecap="round"/>
<path d="M303.833 616.113C300.601 614.568 296.735 615.631 293.251 615.302" stroke="#BFADEA" stroke-width="4" stroke-linecap="round"/>
<path d="M293.251 615.303C292.789 619.847 294.23 624.807 292.438 629.077" stroke="#BFADEA" stroke-width="4" stroke-linecap="round"/>
<path d="M312.786 615.302C309.836 615.636 306.513 614.507 303.832 616.113" stroke="#BFADEA" stroke-width="4" stroke-linecap="round"/>
<path d="M303.832 616.113C303.832 620.435 303.832 624.755 303.832 629.077" stroke="#BFADEA" stroke-width="4" stroke-linecap="round"/>
<path d="M324.181 615.303C320.383 615.303 316.583 615.303 312.786 615.303" stroke="#BFADEA" stroke-width="4" stroke-linecap="round"/>
<path d="M312.786 615.303C312.786 620.164 312.786 625.026 312.786 629.888" stroke="#BFADEA" stroke-width="4" stroke-linecap="round"/>
<path d="M333.134 616.113C330.438 614.653 327.125 615.594 324.181 615.302" stroke="#BFADEA" stroke-width="4" stroke-linecap="round"/>
<path d="M324.181 615.303C324.181 620.164 324.181 625.026 324.181 629.888" stroke="#BFADEA" stroke-width="4" stroke-linecap="round"/>
<path d="M346.971 615.302C342.408 615.763 337.423 614.329 333.134 616.113" stroke="#BFADEA" stroke-width="4" stroke-linecap="round"/>
<path d="M333.134 616.113C333.134 620.435 333.134 624.755 333.134 629.077" stroke="#BFADEA" stroke-width="4" stroke-linecap="round"/>
<path d="M551.266 629.077C554.198 630.223 558.12 630.431 561.034 629.077" stroke="#BFADEA" stroke-width="4" stroke-linecap="round"/>
<path d="M561.034 629.077C561.034 624.755 561.034 620.435 561.034 616.113" stroke="#BFADEA" stroke-width="4" stroke-linecap="round"/>
<path d="M561.034 629.077C563.44 630.197 566.782 630.371 569.173 629.077" stroke="#BFADEA" stroke-width="4" stroke-linecap="round"/>
<path d="M569.173 629.077C570.837 624.788 569.596 619.847 569.987 615.303" stroke="#BFADEA" stroke-width="4" stroke-linecap="round"/>
<path d="M569.173 629.077C572.635 630.249 577.125 630.46 580.568 629.077" stroke="#BFADEA" stroke-width="4" stroke-linecap="round"/>
<path d="M580.568 616.113C577.337 614.568 573.47 615.631 569.987 615.302" stroke="#BFADEA" stroke-width="4" stroke-linecap="round"/>
<path d="M580.568 629.077C583.262 630.538 586.575 629.594 589.521 629.888" stroke="#BFADEA" stroke-width="4" stroke-linecap="round"/>
<path d="M586.265 615.303C583.967 615.175 582.062 615.44 580.568 616.113" stroke="#BFADEA" stroke-width="4" stroke-linecap="round"/>
<path d="M580.568 616.113C580.568 620.435 580.568 624.755 580.568 629.077" stroke="#BFADEA" stroke-width="4" stroke-linecap="round"/>
<path d="M589.521 629.888C593.319 629.888 597.118 629.888 600.916 629.888" stroke="#BFADEA" stroke-width="4" stroke-linecap="round"/>
<path d="M589.521 615.303C589.521 620.164 589.521 625.026 589.521 629.888" stroke="#BFADEA" stroke-width="4" stroke-linecap="round"/>
<path d="M600.916 629.888C603.866 629.554 607.188 630.683 609.87 629.077" stroke="#BFADEA" stroke-width="4" stroke-linecap="round"/>
<path d="M600.916 615.303C600.916 620.164 600.916 625.026 600.916 629.888" stroke="#BFADEA" stroke-width="4" stroke-linecap="round"/>
<path d="M609.869 629.077C613.332 630.249 617.821 630.46 621.264 629.077" stroke="#BFADEA" stroke-width="4" stroke-linecap="round"/>
<path d="M609.869 616.113C609.869 620.435 609.869 624.755 609.869 629.077" stroke="#BFADEA" stroke-width="4" stroke-linecap="round"/>
<path d="M629.404 616.113C626.998 614.993 623.656 614.82 621.264 616.113" stroke="#BFADEA" stroke-width="4" stroke-linecap="round"/>
<path d="M621.264 616.113C620.115 620.333 620.232 624.84 621.264 629.077" stroke="#BFADEA" stroke-width="4" stroke-linecap="round"/>
<path d="M640.799 616.113C637.336 614.941 632.846 614.73 629.404 616.113" stroke="#BFADEA" stroke-width="4" stroke-linecap="round"/>
<path d="M629.404 616.113C629.404 620.435 629.404 624.755 629.404 629.077" stroke="#BFADEA" stroke-width="4" stroke-linecap="round"/>
<path d="M641.07 628.807C643.496 629.836 646.543 630.588 648.938 629.077" stroke="#BFADEA" stroke-width="4" stroke-linecap="round"/>
<path d="M643.24 615.303C642.254 615.4 641.518 615.75 640.799 616.113" stroke="#BFADEA" stroke-width="4" stroke-linecap="round"/>
<path d="M640.799 616.113C640.965 620.336 640.454 624.622 641.07 628.807" stroke="#BFADEA" stroke-width="4" stroke-linecap="round"/>
<path d="M661.961 629.077C660.297 624.788 661.537 619.847 661.147 615.303" stroke="#BFADEA" stroke-width="4" stroke-linecap="round"/>
<path d="M649.752 615.303C649.29 619.847 650.73 624.807 648.938 629.077" stroke="#BFADEA" stroke-width="4" stroke-linecap="round"/>
<path d="M668.472 629.077C670.136 624.788 668.895 619.847 669.286 615.303" stroke="#BFADEA" stroke-width="4" stroke-linecap="round"/>
<path d="M669.286 615.303C666.572 615.303 663.86 615.303 661.147 615.303" stroke="#BFADEA" stroke-width="4" stroke-linecap="round"/>
<path d="M681.495 629.077C679.831 624.788 681.072 619.847 680.681 615.303" stroke="#BFADEA" stroke-width="4" stroke-linecap="round"/>
<path d="M680.681 615.303C676.883 615.303 673.084 615.303 669.286 615.303" stroke="#BFADEA" stroke-width="4" stroke-linecap="round"/>
<path d="M689.634 629.077C689.634 624.755 689.634 620.435 689.634 616.113" stroke="#BFADEA" stroke-width="4" stroke-linecap="round"/>
<path d="M689.634 616.113C687.806 615.233 684.935 615.39 682.309 615.303" stroke="#BFADEA" stroke-width="4" stroke-linecap="round"/>
<path d="M682.309 615.303C681.767 615.303 681.223 615.303 680.681 615.303" stroke="#BFADEA" stroke-width="4" stroke-linecap="round"/>
<path d="M701.029 629.077C702.032 624.431 701.011 620.052 701.029 615.303" stroke="#BFADEA" stroke-width="4" stroke-linecap="round"/>
<path d="M701.029 615.303C697.282 615.747 693.111 614.371 689.634 616.113" stroke="#BFADEA" stroke-width="4" stroke-linecap="round"/>
<path d="M329.064 670.402C333.442 672.624 335.249 677.429 337.677 681.276C340.684 682.357 343.757 682.811 346.971 682.556" stroke="#BFADEA" stroke-width="4" stroke-linecap="round"/>
<path d="M346.97 682.556C415.056 682.827 483.255 682.017 551.266 682.961" stroke="#BFADEA" stroke-width="4" stroke-linecap="round"/>
<path d="M551.266 682.961C555.069 681.712 559.625 683.856 563.034 681.291C564.953 676.972 568.147 673.554 570.801 669.592" stroke="#BFADEA" stroke-width="4" stroke-linecap="round"/>
<path d="M570.801 669.592C571.366 666.671 573.516 664.626 574.328 661.759" stroke="#BFADEA" stroke-width="4" stroke-linecap="round"/>
<path d="M574.328 661.759C566.824 659.405 558.34 661.283 550.453 660.679" stroke="#BFADEA" stroke-width="4" stroke-linecap="round"/>
<path d="M550.453 660.679C547.739 660.679 545.027 660.679 542.313 660.679" stroke="#BFADEA" stroke-width="4" stroke-linecap="round"/>
<path d="M324.995 661.489C325.074 665.206 329.52 666.637 329.064 670.402" stroke="#BFADEA" stroke-width="4" stroke-linecap="round"/>
<path d="M150 670.402C150.542 670.402 151.086 670.402 151.628 670.402" stroke="#BFADEA" stroke-width="4" stroke-linecap="round"/>
<path d="M151.628 670.402C210.773 670.402 269.919 670.402 329.064 670.402" stroke="#BFADEA" stroke-width="4" stroke-linecap="round"/>
<path d="M152.442 661.489C151.802 661.931 150.907 662.122 150 662.299" stroke="#BFADEA" stroke-width="4" stroke-linecap="round"/>
<path d="M150 662.299C150 665.001 150 667.701 150 670.402" stroke="#BFADEA" stroke-width="4" stroke-linecap="round"/>
<path d="M570.801 669.592C629.91 671.481 689.685 669.862 749.051 670.402" stroke="#BFADEA" stroke-width="4" stroke-linecap="round"/>
<path d="M749.051 670.402C749.323 670.131 749.593 669.862 749.865 669.592" stroke="#BFADEA" stroke-width="4" stroke-linecap="round"/>
<path d="M749.865 669.592C749.865 667.704 749.865 664.808 749.865 663.109" stroke="#BFADEA" stroke-width="4" stroke-linecap="round"/>
<path d="M152.442 753.051C216.959 753.591 281.917 751.97 346.157 753.862" stroke="#BFADEA" stroke-width="4" stroke-linecap="round"/>
<path d="M346.157 753.862C347.308 750.943 347.514 747.039 346.157 744.138" stroke="#BFADEA" stroke-width="4" stroke-linecap="round"/>
<path d="M151.628 670.402C152.165 697.915 150.55 725.732 152.442 753.051" stroke="#BFADEA" stroke-width="4" stroke-linecap="round"/>
<path d="M551.266 682.961C551.266 686.102 551.266 688.726 551.266 691.469" stroke="#BFADEA" stroke-width="4" stroke-linecap="round"/>
<path d="M551.266 691.469C563.815 691.807 576.663 690.803 589.024 691.964C589.573 709.062 590.389 727.088 588.631 743.809C576.366 744.568 563.983 743.926 551.673 744.138" stroke="#BFADEA" stroke-width="4" stroke-linecap="round"/>
<path d="M551.673 744.138C550.711 747.104 552.994 750.116 551.266 753.051" stroke="#BFADEA" stroke-width="4" stroke-linecap="round"/>
<path d="M551.266 753.051C617.195 753.051 683.123 753.051 749.051 753.051" stroke="#BFADEA" stroke-width="4" stroke-linecap="round"/>
<path d="M346.157 690.659C347.062 692.176 346.675 694.19 345.885 695.792" stroke="#BFADEA" stroke-width="4" stroke-linecap="round"/>
<path d="M345.885 695.792C346.331 709.604 346.342 723.575 345.885 737.385" stroke="#BFADEA" stroke-width="4" stroke-linecap="round"/>
<path d="M346.157 753.862C346.728 754.913 346.777 756.484 346.971 757.913" stroke="#BFADEA" stroke-width="4" stroke-linecap="round"/>
<path d="M346.97 757.913C361.079 757.913 375.186 757.913 389.295 757.913" stroke="#BFADEA" stroke-width="4" stroke-linecap="round"/>
<path d="M389.295 757.913C390.939 751.097 388.67 744.208 390.109 737.656" stroke="#BFADEA" stroke-width="4" stroke-linecap="round"/>
<path d="M390.109 737.656C389.375 736.225 389.405 734.034 389.295 731.984" stroke="#BFADEA" stroke-width="4" stroke-linecap="round"/>
<path d="M389.295 731.984C386.956 732.12 385.032 731.867 383.93 731.097C383.514 728.508 383.35 725.723 383.838 723.145C398.064 720.766 413.475 723.507 427.861 721.76C435.848 705.032 463.429 705.013 471.148 721.802C484.822 723.182 498.962 721.309 512.516 722.755C513.012 725.552 513.574 728.803 512.504 731.48C511.174 731.776 510.017 732.245 508.942 732.796" stroke="#BFADEA" stroke-width="4" stroke-linecap="round"/>
<path d="M508.942 732.794C509.05 734.982 508.843 736.974 508.128 737.656" stroke="#BFADEA" stroke-width="4" stroke-linecap="round"/>
<path d="M551.673 744.138C551.164 742.318 551.203 739.46 552.08 736.846" stroke="#BFADEA" stroke-width="4" stroke-linecap="round"/>
<path d="M346.971 682.556C347.039 686.204 347.078 688.791 346.157 690.659" stroke="#BFADEA" stroke-width="4" stroke-linecap="round"/>
<path d="M346.157 744.138C347.132 742.273 347.028 739.388 345.885 737.385" stroke="#BFADEA" stroke-width="4" stroke-linecap="round"/>
<path d="M346.157 690.659C334.457 692.842 321.796 690.295 310.026 691.964C309.478 709.062 308.662 727.088 310.42 743.809C322.278 744.566 334.254 743.927 346.157 744.138" stroke="#BFADEA" stroke-width="4" stroke-linecap="round"/>
<path d="M552.08 696.331C562.128 695.555 574.068 693.954 583.387 697.052C584.221 710.469 583.874 724.153 583.583 737.58C573.612 738.651 561.678 739.897 552.079 736.846" stroke="#BFADEA" stroke-width="4" stroke-linecap="round"/>
<path d="M551.266 691.469C551.219 693.09 551.639 694.711 552.08 696.331" stroke="#BFADEA" stroke-width="4" stroke-linecap="round"/>
<path d="M345.885 695.792C335.747 695.339 325.421 695.362 315.302 695.759C313.582 709.383 314.322 724.192 314.909 737.972C325.096 738.437 335.898 739.505 345.885 737.385" stroke="#BFADEA" stroke-width="4" stroke-linecap="round"/>
<path d="M552.08 696.331C552.08 709.835 552.08 723.341 552.08 736.845" stroke="#BFADEA" stroke-width="4" stroke-linecap="round"/>
<path d="M389.295 731.984C404.488 731.984 419.682 731.984 434.875 731.984" stroke="#BFADEA" stroke-width="4" stroke-linecap="round"/>
<path d="M434.875 731.984C437.999 721.278 451.832 716.856 460.435 724.364C461.428 727.576 464.505 729.313 464.99 732.794" stroke="#BFADEA" stroke-width="4" stroke-linecap="round"/>
<path d="M434.875 731.984C435.003 734.272 434.736 736.168 434.061 737.656" stroke="#BFADEA" stroke-width="4" stroke-linecap="round"/>
<path d="M434.061 737.656C435.941 754.905 434.346 772.819 434.875 790.324" stroke="#BFADEA" stroke-width="4" stroke-linecap="round"/>
<path d="M434.875 790.324C444.692 791.864 455.068 791.193 464.99 790.73" stroke="#BFADEA" stroke-width="4" stroke-linecap="round"/>
<path d="M390.109 737.656C391.939 737.656 394.809 737.656 397.434 737.656" stroke="#BFADEA" stroke-width="4" stroke-linecap="round"/>
<path d="M397.434 737.656C400.214 737.622 402.967 737.602 404.759 738.061" stroke="#BFADEA" stroke-width="4" stroke-linecap="round"/>
<path d="M404.76 738.061C409.291 737.221 413.998 737.858 418.596 737.656" stroke="#BFADEA" stroke-width="4" stroke-linecap="round"/>
<path d="M418.596 737.656C421.377 737.622 424.129 737.602 425.922 738.061" stroke="#BFADEA" stroke-width="4" stroke-linecap="round"/>
<path d="M465.397 737.656C467.935 737.656 470.09 737.656 472.315 737.656" stroke="#BFADEA" stroke-width="4" stroke-linecap="round"/>
<path d="M472.315 737.656C475.029 737.656 477.741 737.656 480.455 737.656" stroke="#BFADEA" stroke-width="4" stroke-linecap="round"/>
<path d="M508.942 732.794C494.656 731.465 479.257 731.43 464.99 732.794" stroke="#BFADEA" stroke-width="4" stroke-linecap="round"/>
<path d="M464.99 732.794C464.927 734.353 465.06 736.278 465.397 737.656" stroke="#BFADEA" stroke-width="4" stroke-linecap="round"/>
<path d="M389.295 757.913C389.488 758.184 389.682 758.453 389.876 758.723C389.827 760.853 389.5 763.264 388.481 765.206" stroke="#BFADEA" stroke-width="4" stroke-linecap="round"/>
<path d="M388.481 765.205C391.927 772.965 389.274 782.032 390.109 790.324" stroke="#BFADEA" stroke-width="4" stroke-linecap="round"/>
<path d="M390.109 790.324C393.013 790.324 395.152 790.324 397.434 790.324" stroke="#BFADEA" stroke-width="4" stroke-linecap="round"/>
<path d="M397.434 790.324C399.872 791.368 402.581 791.078 404.759 789.514" stroke="#BFADEA" stroke-width="4" stroke-linecap="round"/>
<path d="M397.434 737.656C397.434 755.211 397.434 772.769 397.434 790.324" stroke="#BFADEA" stroke-width="4" stroke-linecap="round"/>
<path d="M404.76 789.514C408.888 792.167 413.978 790.791 418.596 791.135" stroke="#BFADEA" stroke-width="4" stroke-linecap="round"/>
<path d="M404.76 738.061C404.76 755.211 404.76 772.364 404.76 789.514" stroke="#BFADEA" stroke-width="4" stroke-linecap="round"/>
<path d="M418.596 791.135C421.126 791.362 423.784 790.9 425.922 789.514" stroke="#BFADEA" stroke-width="4" stroke-linecap="round"/>
<path d="M418.596 737.656C418.596 755.482 418.596 773.308 418.596 791.135" stroke="#BFADEA" stroke-width="4" stroke-linecap="round"/>
<path d="M434.061 737.656C431.355 737.81 428.556 737.272 425.922 738.061" stroke="#BFADEA" stroke-width="4" stroke-linecap="round"/>
<path d="M425.922 738.061C425.922 755.211 425.922 772.364 425.922 789.514" stroke="#BFADEA" stroke-width="4" stroke-linecap="round"/>
<path d="M464.99 790.73C466.82 791.169 469.69 791.093 472.316 791.135" stroke="#BFADEA" stroke-width="4" stroke-linecap="round"/>
<path d="M465.397 737.656C464.456 755.267 465.256 773.052 464.99 790.73" stroke="#BFADEA" stroke-width="4" stroke-linecap="round"/>
<path d="M472.315 791.135C475.14 791.645 477.645 790.054 480.455 790.324" stroke="#BFADEA" stroke-width="4" stroke-linecap="round"/>
<path d="M472.315 737.656C472.315 755.482 472.315 773.308 472.315 791.135" stroke="#BFADEA" stroke-width="4" stroke-linecap="round"/>
<path d="M493.477 737.656C489.136 737.656 484.796 737.656 480.455 737.656" stroke="#BFADEA" stroke-width="4" stroke-linecap="round"/>
<path d="M480.455 737.656C480.455 755.211 480.455 772.769 480.455 790.324" stroke="#BFADEA" stroke-width="4" stroke-linecap="round"/>
<path d="M501.617 737.656C498.903 737.656 496.191 737.656 493.478 737.656" stroke="#BFADEA" stroke-width="4" stroke-linecap="round"/>
<path d="M493.478 737.656C494.669 754.821 494.233 772.203 494.292 789.514" stroke="#BFADEA" stroke-width="4" stroke-linecap="round"/>
<path d="M508.128 757.913C508.128 751.16 508.128 744.409 508.128 737.656" stroke="#BFADEA" stroke-width="4" stroke-linecap="round"/>
<path d="M508.128 737.656C505.958 737.656 503.787 737.656 501.617 737.656" stroke="#BFADEA" stroke-width="4" stroke-linecap="round"/>
<path d="M501.617 737.656C501.617 755.211 501.617 772.769 501.617 790.324" stroke="#BFADEA" stroke-width="4" stroke-linecap="round"/>
<path d="M152.442 760.344C216.47 760.344 280.5 760.344 344.529 760.344" stroke="#BFADEA" stroke-width="4" stroke-linecap="round"/>
<path d="M344.529 760.344C345.004 759.196 345.893 758.461 346.97 757.913" stroke="#BFADEA" stroke-width="4" stroke-linecap="round"/>
<path d="M152.442 753.051C151.579 755.318 151.05 758.171 152.442 760.344" stroke="#BFADEA" stroke-width="4" stroke-linecap="round"/>
<path d="M551.266 757.103C551.789 758.203 552.259 759.355 552.894 760.344" stroke="#BFADEA" stroke-width="4" stroke-linecap="round"/>
<path d="M551.266 753.051C551.266 754.719 551.266 755.921 551.266 757.103" stroke="#BFADEA" stroke-width="4" stroke-linecap="round"/>
<path d="M344.529 760.344C345.154 762.489 345.658 764.729 346.97 765.206" stroke="#BFADEA" stroke-width="4" stroke-linecap="round"/>
<path d="M346.97 765.205C360.807 765.205 374.644 765.205 388.481 765.205" stroke="#BFADEA" stroke-width="4" stroke-linecap="round"/>
<path d="M508.942 765.205C522.952 765.385 537.025 764.844 550.995 765.476" stroke="#BFADEA" stroke-width="4" stroke-linecap="round"/>
<path d="M551.267 757.103C537.195 758.965 522.457 757.394 508.128 757.913" stroke="#BFADEA" stroke-width="4" stroke-linecap="round"/>
<path d="M508.128 757.913C508.06 760.681 508.021 763.421 508.942 765.206" stroke="#BFADEA" stroke-width="4" stroke-linecap="round"/>
<path d="M152.442 786.273C217.014 786.273 281.584 786.273 346.157 786.273" stroke="#BFADEA" stroke-width="4" stroke-linecap="round"/>
<path d="M346.157 786.273C347.952 779.557 346.492 772.174 346.971 765.205" stroke="#BFADEA" stroke-width="4" stroke-linecap="round"/>
<path d="M152.442 760.344C151.143 768.627 151.053 778.01 152.442 786.273" stroke="#BFADEA" stroke-width="4" stroke-linecap="round"/>
<path d="M550.995 765.476C551.859 772.351 550.578 779.434 551.673 786.273" stroke="#BFADEA" stroke-width="4" stroke-linecap="round"/>
<path d="M748.237 760.344C683.123 760.344 618.009 760.344 552.894 760.344" stroke="#BFADEA" stroke-width="4" stroke-linecap="round"/>
<path d="M552.894 760.344C552.333 761.861 552.007 763.875 550.995 765.476" stroke="#BFADEA" stroke-width="4" stroke-linecap="round"/>
<path d="M346.157 786.273C346.891 787.576 346.86 790.033 346.971 792.755" stroke="#BFADEA" stroke-width="4" stroke-linecap="round"/>
<path d="M346.97 792.755C361.214 792.755 375.458 792.755 389.702 792.755" stroke="#BFADEA" stroke-width="4" stroke-linecap="round"/>
<path d="M389.702 792.755C389.925 792.117 390.019 791.229 390.109 790.324" stroke="#BFADEA" stroke-width="4" stroke-linecap="round"/>
<path d="M507.314 791.135C507.856 791.674 508.4 792.216 508.942 792.755" stroke="#BFADEA" stroke-width="4" stroke-linecap="round"/>
<path d="M508.942 765.205C506.601 773.488 509.675 782.871 507.314 791.135" stroke="#BFADEA" stroke-width="4" stroke-linecap="round"/>
<path d="M152.442 792.755C216.706 794.645 281.637 793.026 346.157 793.566" stroke="#BFADEA" stroke-width="4" stroke-linecap="round"/>
<path d="M346.157 793.566C346.37 793.238 346.668 792.993 346.971 792.755" stroke="#BFADEA" stroke-width="4" stroke-linecap="round"/>
<path d="M152.442 786.273C151.491 788.161 151.607 791.057 152.442 792.755" stroke="#BFADEA" stroke-width="4" stroke-linecap="round"/>
<path d="M551.266 792.35C552.08 792.587 552.894 793.029 553.708 793.566" stroke="#BFADEA" stroke-width="4" stroke-linecap="round"/>
<path d="M748.237 786.273C682.716 786.273 617.195 786.273 551.673 786.273" stroke="#BFADEA" stroke-width="4" stroke-linecap="round"/>
<path d="M551.673 786.273C551.305 787.641 551.322 789.963 551.266 792.35" stroke="#BFADEA" stroke-width="4" stroke-linecap="round"/>
<path d="M389.702 792.755C390.143 794.575 390.066 797.434 390.109 800.048" stroke="#BFADEA" stroke-width="4" stroke-linecap="round"/>
<path d="M390.109 800.048C399.604 800.048 409.101 800.048 418.596 800.048" stroke="#BFADEA" stroke-width="4" stroke-linecap="round"/>
<path d="M418.596 800.048C438.889 800.586 459.625 798.97 479.641 800.858" stroke="#BFADEA" stroke-width="4" stroke-linecap="round"/>
<path d="M479.641 800.858C488.829 799.032 498.684 800.544 508.128 800.048" stroke="#BFADEA" stroke-width="4" stroke-linecap="round"/>
<path d="M508.128 800.048C508.4 799.777 508.67 799.508 508.942 799.238" stroke="#BFADEA" stroke-width="4" stroke-linecap="round"/>
<path d="M507.314 791.135C505.408 791.324 503.922 790.629 501.617 790.324" stroke="#BFADEA" stroke-width="4" stroke-linecap="round"/>
<path d="M501.617 790.324C499.179 791.368 496.47 791.078 494.292 789.514" stroke="#BFADEA" stroke-width="4" stroke-linecap="round"/>
<path d="M494.291 789.514C490.435 792.831 484.944 790.41 480.455 790.324" stroke="#BFADEA" stroke-width="4" stroke-linecap="round"/>
<path d="M434.875 790.324C431.937 791.417 428.565 791.371 425.922 789.514" stroke="#BFADEA" stroke-width="4" stroke-linecap="round"/>
<path d="M152.442 867.302C216.651 868.652 281.969 868.653 346.157 867.302" stroke="#BFADEA" stroke-width="4" stroke-linecap="round"/>
<path d="M346.157 867.302C347.355 863.321 347.558 858.296 346.157 854.337" stroke="#BFADEA" stroke-width="4" stroke-linecap="round"/>
<path d="M346.157 854.337C334.231 853.755 321.885 855.274 310.344 854.112C308.792 837.174 309.398 819.2 310.026 802.161C321.923 801.573 334.46 800.904 346.157 802.477" stroke="#BFADEA" stroke-width="4" stroke-linecap="round"/>
<path d="M152.442 792.755C151.092 817.242 151.081 842.834 152.442 867.302" stroke="#BFADEA" stroke-width="4" stroke-linecap="round"/>
<path d="M346.97 800.048C361.349 800.048 375.73 800.048 390.109 800.048" stroke="#BFADEA" stroke-width="4" stroke-linecap="round"/>
<path d="M346.157 793.566C345.965 796.343 346.666 797.667 346.971 800.048" stroke="#BFADEA" stroke-width="4" stroke-linecap="round"/>
<path d="M508.942 799.238C522.751 801.8 537.889 798.115 551.538 801.129" stroke="#BFADEA" stroke-width="4" stroke-linecap="round"/>
<path d="M551.267 792.35C537.239 793.282 523.036 792.494 508.942 792.755" stroke="#BFADEA" stroke-width="4" stroke-linecap="round"/>
<path d="M508.942 792.755C507.99 794.643 508.107 797.539 508.942 799.238" stroke="#BFADEA" stroke-width="4" stroke-linecap="round"/>
<path d="M552.622 800.587C564.262 803.365 577.188 800.34 589.025 802.163C589.573 819.261 590.389 837.287 588.631 854.008C576.366 854.766 563.983 854.125 551.673 854.337" stroke="#BFADEA" stroke-width="4" stroke-linecap="round"/>
<path d="M748.237 792.755C683.701 794.645 618.5 793.026 553.708 793.566" stroke="#BFADEA" stroke-width="4" stroke-linecap="round"/>
<path d="M553.708 793.566C553.951 795.987 553.557 798.363 552.623 800.588" stroke="#BFADEA" stroke-width="4" stroke-linecap="round"/>
<path d="M346.157 802.479C347.233 804.556 346.375 806.757 346.157 808.151" stroke="#BFADEA" stroke-width="4" stroke-linecap="round"/>
<path d="M346.157 881.887C347.041 883.707 346.884 886.565 346.971 889.179" stroke="#BFADEA" stroke-width="4" stroke-linecap="round"/>
<path d="M346.97 889.179C361.216 888.891 376.042 890.095 390.109 888.369" stroke="#BFADEA" stroke-width="4" stroke-linecap="round"/>
<path d="M346.971 800.048C346.873 801.03 346.521 801.762 346.157 802.479" stroke="#BFADEA" stroke-width="4" stroke-linecap="round"/>
<path d="M390.109 888.369C396.262 890.625 403.509 887.703 409.643 889.99" stroke="#BFADEA" stroke-width="4" stroke-linecap="round"/>
<path d="M409.643 889.99C412.339 888.529 415.651 889.471 418.596 889.179" stroke="#BFADEA" stroke-width="4" stroke-linecap="round"/>
<path d="M390.109 800.048C390.109 829.489 390.109 858.928 390.109 888.369" stroke="#BFADEA" stroke-width="4" stroke-linecap="round"/>
<path d="M418.596 889.179C423.7 888.701 429.233 890.178 434.061 888.369" stroke="#BFADEA" stroke-width="4" stroke-linecap="round"/>
<path d="M434.061 888.369C435.09 865.467 432.003 841.123 435.599 819.119C444.736 818.315 454.14 818.613 463.286 818.924C465.355 841.933 463.588 865.83 464.176 889.181" stroke="#BFADEA" stroke-width="4" stroke-linecap="round"/>
<path d="M418.596 800.048C418.596 829.758 418.596 859.469 418.596 889.179" stroke="#BFADEA" stroke-width="4" stroke-linecap="round"/>
<path d="M479.641 888.369C482.335 889.829 485.648 888.886 488.594 889.179" stroke="#BFADEA" stroke-width="4" stroke-linecap="round"/>
<path d="M488.594 889.179C495.29 889.57 501.415 889.56 508.129 889.179" stroke="#BFADEA" stroke-width="4" stroke-linecap="round"/>
<path d="M479.641 800.858C479.641 830.028 479.641 859.199 479.641 888.369" stroke="#BFADEA" stroke-width="4" stroke-linecap="round"/>
<path d="M508.128 889.179C522.782 888.829 537.737 889.688 552.081 889.179" stroke="#BFADEA" stroke-width="4" stroke-linecap="round"/>
<path d="M551.266 868.112C551.506 863.534 550.765 858.844 551.673 854.337" stroke="#BFADEA" stroke-width="4" stroke-linecap="round"/>
<path d="M551.673 854.337C551.177 852.906 551.46 850.715 552.08 848.665" stroke="#BFADEA" stroke-width="4" stroke-linecap="round"/>
<path d="M508.128 800.048C508.128 829.758 508.128 859.469 508.128 889.179" stroke="#BFADEA" stroke-width="4" stroke-linecap="round"/>
<path d="M346.157 854.337C347.019 852.778 346.722 850.853 346.157 849.475" stroke="#BFADEA" stroke-width="4" stroke-linecap="round"/>
<path d="M346.156 849.475C336.085 850.981 325.051 850.449 314.91 849.791C314.11 836.204 314.062 822.123 314.91 808.643C325.234 807.53 335.756 808.454 346.156 808.149" stroke="#BFADEA" stroke-width="4" stroke-linecap="round"/>
<path d="M552.08 808.151C562.248 807.24 573.511 807.882 583.493 809.037C584.09 822.426 583.937 836.023 583.584 849.399C573.614 850.47 561.68 851.717 552.08 848.665" stroke="#BFADEA" stroke-width="4" stroke-linecap="round"/>
<path d="M552.623 800.587C552.261 800.767 551.9 800.949 551.538 801.129" stroke="#BFADEA" stroke-width="4" stroke-linecap="round"/>
<path d="M551.538 801.129C551.175 802.655 551.188 805.564 552.08 808.151" stroke="#BFADEA" stroke-width="4" stroke-linecap="round"/>
<path d="M346.157 849.475C346.157 835.7 346.157 821.926 346.157 808.151" stroke="#BFADEA" stroke-width="4" stroke-linecap="round"/>
<path d="M552.081 808.151C552.522 821.363 551.776 835.19 552.081 848.665" stroke="#BFADEA" stroke-width="4" stroke-linecap="round"/>
<path d="M434.061 888.369C443.791 890.202 454.189 888.679 464.176 889.179" stroke="#BFADEA" stroke-width="4" stroke-linecap="round"/>
<path d="M346.157 881.887C347.376 877.373 347.562 871.795 346.157 867.302" stroke="#BFADEA" stroke-width="4" stroke-linecap="round"/>
<path d="M152.442 867.302C151.304 871.238 150.925 876.367 152.518 880.19C216.633 882.796 282.004 879.407 346.157 881.887" stroke="#BFADEA" stroke-width="4" stroke-linecap="round"/>
<path d="M749.051 868.112C683.123 868.112 617.195 868.112 551.266 868.112" stroke="#BFADEA" stroke-width="4" stroke-linecap="round"/>
<path d="M551.267 868.112C550.939 872.52 551.545 876.771 552.081 881.076" stroke="#BFADEA" stroke-width="4" stroke-linecap="round"/>
<path d="M409.643 899.308C409.643 896.201 409.643 893.096 409.643 889.99" stroke="#BFADEA" stroke-width="4" stroke-linecap="round"/>
<path d="M346.97 889.179C345.448 892.207 346.218 896.128 346.428 899.443" stroke="#BFADEA" stroke-width="4" stroke-linecap="round"/>
<path d="M488.594 899.713C488.594 896.201 488.594 892.691 488.594 889.179" stroke="#BFADEA" stroke-width="4" stroke-linecap="round"/>
<path d="M479.641 888.369C474.792 890.064 469.283 888.768 464.176 889.179" stroke="#BFADEA" stroke-width="4" stroke-linecap="round"/>
<path d="M551.266 899.713C552.818 896.496 551.75 892.649 552.08 889.179" stroke="#BFADEA" stroke-width="4" stroke-linecap="round"/>
<path d="M447.898 377.889C456.538 377.621 464.995 381.076 470.688 386.802" stroke="#BFADEA" stroke-width="4" stroke-linecap="round"/>
<path d="M470.688 386.802C476.903 392.137 481.373 400.69 480.455 409.49" stroke="#BFADEA" stroke-width="4" stroke-linecap="round"/>
<path d="M416.154 410.3C415.238 402.935 417.932 393.652 424.294 389.233" stroke="#BFADEA" stroke-width="4" stroke-linecap="round"/>
<path d="M424.294 389.233C429.462 381.214 438.725 378.491 447.898 377.889" stroke="#BFADEA" stroke-width="4" stroke-linecap="round"/>
<path d="M416.155 410.3C421.546 408.576 427.6 409.919 433.247 409.49" stroke="#BFADEA" stroke-width="4" stroke-linecap="round"/>
<path d="M433.247 409.49C432.654 406.194 435.796 403.815 435.689 400.577" stroke="#BFADEA" stroke-width="4" stroke-linecap="round"/>
<path d="M435.689 400.577C439.184 397.676 443.229 396.906 447.356 395.444" stroke="#BFADEA" stroke-width="4" stroke-linecap="round"/>
<path d="M424.294 389.233C428.899 392.108 432.234 396.49 435.689 400.577" stroke="#BFADEA" stroke-width="4" stroke-linecap="round"/>
<path d="M458.479 398.956C458.988 402.666 462.21 405.421 461.734 409.49" stroke="#BFADEA" stroke-width="4" stroke-linecap="round"/>
<path d="M470.688 386.802C466.618 390.853 462.548 394.905 458.479 398.956" stroke="#BFADEA" stroke-width="4" stroke-linecap="round"/>
<path d="M447.898 377.889C447.256 383.661 446.573 389.591 447.356 395.444" stroke="#BFADEA" stroke-width="4" stroke-linecap="round"/>
<path d="M447.356 395.444C451.215 396.618 454.904 397.086 458.479 398.956" stroke="#BFADEA" stroke-width="4" stroke-linecap="round"/>
<path d="M433.247 409.49C432.677 413.582 435.357 416.747 437.317 420.023" stroke="#BFADEA" stroke-width="4" stroke-linecap="round"/>
<path d="M437.317 420.024C440.397 422.232 443.564 423.589 447.084 424.885" stroke="#BFADEA" stroke-width="4" stroke-linecap="round"/>
<path d="M447.084 424.885C450.327 423.744 453.616 422.832 456.851 421.644" stroke="#BFADEA" stroke-width="4" stroke-linecap="round"/>
<path d="M456.851 421.644C460.1 418.215 461.7 414.298 461.734 409.49" stroke="#BFADEA" stroke-width="4" stroke-linecap="round"/>
<path d="M425.922 431.368C430.061 438.517 439.019 440.781 446.812 440.82" stroke="#BFADEA" stroke-width="4" stroke-linecap="round"/>
<path d="M446.812 440.82C447.401 435.552 446.932 430.188 447.084 424.885" stroke="#BFADEA" stroke-width="4" stroke-linecap="round"/>
<path d="M416.155 410.3C416.06 418.343 418.756 427.05 425.922 431.368" stroke="#BFADEA" stroke-width="4" stroke-linecap="round"/>
<path d="M425.922 431.368C429.719 427.587 433.519 423.804 437.317 420.024" stroke="#BFADEA" stroke-width="4" stroke-linecap="round"/>
<path d="M446.812 440.82C454.163 442.083 464.088 439.757 468.516 433.257" stroke="#BFADEA" stroke-width="4" stroke-linecap="round"/>
<path d="M468.518 433.259C465.161 428.945 461 425.177 456.851 421.644" stroke="#BFADEA" stroke-width="4" stroke-linecap="round"/>
<path d="M468.518 433.259C477.263 429.411 481.176 418.414 480.455 409.49" stroke="#BFADEA" stroke-width="4" stroke-linecap="round"/>
<path d="M480.455 409.49C474.215 409.49 467.974 409.49 461.734 409.49" stroke="#BFADEA" stroke-width="4" stroke-linecap="round"/>
<path fill-rule="evenodd" clip-rule="evenodd" d="M432.433 629.077C440.472 648.644 466.351 641.898 470.348 626.308C478.222 595.6 422.044 593.185 432.433 629.077Z" stroke="#BFADEA" stroke-width="4" stroke-linecap="round"/>
<path fill-rule="evenodd" clip-rule="evenodd" d="M679.895 166.12L676.995 166.136L606.246 481.17H754.185L679.895 166.12ZM750.426 478.194H609.964L678.482 173.095L750.426 478.194Z" fill="#BFADEA"/>
<path d="M654.479 178.475L663.462 176.742C669.461 175.584 674.814 172.245 678.492 167.374L647.238 169.629H628.785C609.828 169.629 590.909 167.928 572.256 164.547L457.648 144.665C457.364 144.616 457.683 145.029 457.92 145.192L461.055 147.348L464.315 150.112L466.583 153.458L468.275 158.742L464.729 161.767L548.208 174.309C571.895 177.706 595.795 179.411 619.726 179.411H644.688C647.974 179.411 651.252 179.098 654.479 178.475Z" fill="#BFADEA"/>
<path fill-rule="evenodd" clip-rule="evenodd" d="M456.797 146.226C455.25 145.359 456.061 142.879 457.902 143.199L572.51 163.081L572.521 163.083C591.087 166.448 609.917 168.141 628.785 168.141H647.184L678.735 165.865L678.837 167.269L679.863 168.025C679.802 168.107 679.741 168.189 679.679 168.271C675.78 173.435 670.104 176.975 663.744 178.203L654.761 179.936C651.441 180.577 648.068 180.899 644.688 180.899H619.726C595.725 180.899 571.754 179.189 547.996 175.782L547.986 175.781L461.28 162.753L466.556 158.253L465.231 154.115L463.197 151.115L460.15 148.531L456.797 146.226ZM458.36 143.69L458.461 143.759C458.429 143.735 458.395 143.712 458.36 143.69ZM463.085 147.118L571.991 166.011L571.996 166.012C590.735 169.408 609.741 171.116 628.785 171.116H647.291L674.974 169.12C671.748 172.261 667.655 174.417 663.18 175.281L654.197 177.014C651.063 177.619 647.879 177.923 644.688 177.923H619.726C595.868 177.923 572.04 176.224 548.423 172.837L548.419 172.836L468.178 160.78L469.994 159.232L467.935 152.8L465.432 149.108L463.085 147.118ZM457.623 144.811L457.648 144.665L457.623 144.811Z" fill="#BFADEA"/>
<path fill-rule="evenodd" clip-rule="evenodd" d="M754.181 481.159C745.737 495.1 715.828 505.404 680.227 505.404C644.626 505.404 614.717 495.1 606.272 481.159H754.181Z" fill="#BFADEA"/>
<path fill-rule="evenodd" clip-rule="evenodd" d="M290.323 481.159C281.878 495.1 251.969 505.404 216.368 505.404C180.767 505.404 150.858 495.1 142.413 481.159H290.323Z" fill="#BFADEA"/>
<path fill-rule="evenodd" clip-rule="evenodd" d="M216.704 166.12L219.604 166.136L290.353 481.17H142.413L216.704 166.12ZM146.173 478.194H286.635L218.117 173.095L146.173 478.194Z" fill="#BFADEA"/>
<path d="M242.12 178.475L233.136 176.742C227.138 175.584 221.784 172.245 218.107 167.374L249.361 169.629H267.814C286.771 169.629 305.689 167.928 324.342 164.547L438.95 144.665C439.234 144.616 438.916 145.029 438.678 145.192L435.544 147.348L432.284 150.112L430.016 153.458L428.324 158.742L431.869 161.767L348.391 174.309C324.703 177.706 300.803 179.411 276.873 179.411H251.911C248.625 179.411 245.346 179.098 242.12 178.475Z" fill="#BFADEA"/>
<path fill-rule="evenodd" clip-rule="evenodd" d="M439.801 146.226C441.348 145.359 440.538 142.879 438.696 143.199L324.088 163.081L324.077 163.083C305.512 166.448 286.682 168.141 267.814 168.141H249.414L217.863 165.865L217.762 167.269L216.736 168.025C216.797 168.107 216.858 168.189 216.919 168.271C220.818 173.435 226.494 176.975 232.854 178.203L241.838 179.936C245.157 180.577 248.53 180.899 251.911 180.899H276.873C300.874 180.899 324.844 179.189 348.602 175.782L348.612 175.781L435.319 162.753L430.043 158.253L431.367 154.115L433.401 151.115L436.449 148.531L439.801 146.226ZM438.238 143.69L438.138 143.759C438.17 143.735 438.203 143.712 438.238 143.69ZM433.514 147.118L324.608 166.011L324.602 166.012C305.864 169.408 286.858 171.116 267.814 171.116H249.307L221.624 169.12C224.85 172.261 228.943 174.417 233.418 175.281L242.402 177.014C245.535 177.619 248.719 177.923 251.911 177.923H276.873C300.731 177.923 324.559 176.224 348.175 172.837L348.18 172.836L428.42 160.78L426.605 159.232L428.664 152.8L431.166 149.108L433.514 147.118ZM438.976 144.811L438.95 144.665L438.976 144.811Z" fill="#BFADEA"/>
<path fill-rule="evenodd" clip-rule="evenodd" d="M142.417 481.159C150.862 495.1 180.771 505.404 216.372 505.404C251.973 505.404 281.882 495.1 290.326 481.159H142.417Z" fill="#BFADEA"/>
<path fill-rule="evenodd" clip-rule="evenodd" d="M606.276 481.159C614.72 495.1 644.629 505.404 680.23 505.404C715.832 505.404 745.741 495.1 754.185 481.159H606.276Z" fill="#BFADEA"/>
<rect y="704.032" width="900" height="200.806" fill="#6D157A"/>
<path d="M316.476 784.625L314.173 795.401H324.043V808.069H311.458L308.743 820.654H295.582L298.297 808.069H284.642L281.927 820.654H268.766L271.481 808.069H259.306V795.401H274.195L276.498 784.625H264.571V771.958H279.131L281.763 759.783H294.924L292.292 771.958H305.947L308.579 759.783H321.74L319.108 771.958H329.308V784.625H316.476ZM303.314 784.625H289.66L287.356 795.401H301.011L303.314 784.625Z" fill="white"/>
<path d="M358.04 821.23C353.818 821.23 350.034 820.545 346.689 819.174C343.344 817.803 340.657 815.774 338.628 813.087C336.653 810.4 335.611 807.164 335.502 803.38H350.473C350.692 805.519 351.432 807.164 352.694 808.316C353.955 809.412 355.6 809.961 357.629 809.961C359.713 809.961 361.358 809.495 362.565 808.562C363.771 807.575 364.374 806.232 364.374 804.532C364.374 803.106 363.881 801.927 362.894 800.995C361.961 800.062 360.782 799.295 359.357 798.691C357.986 798.088 356.011 797.403 353.434 796.635C349.705 795.483 346.661 794.332 344.303 793.18C341.945 792.029 339.916 790.329 338.216 788.08C336.516 785.832 335.666 782.898 335.666 779.279C335.666 773.904 337.613 769.709 341.507 766.693C345.4 763.622 350.473 762.087 356.724 762.087C363.086 762.087 368.213 763.622 372.107 766.693C376 769.709 378.084 773.932 378.358 779.361H363.141C363.031 777.496 362.345 776.043 361.084 775.001C359.823 773.904 358.205 773.356 356.231 773.356C354.531 773.356 353.16 773.822 352.118 774.754C351.076 775.632 350.555 776.92 350.555 778.62C350.555 780.485 351.432 781.938 353.187 782.98C354.942 784.022 357.684 785.146 361.413 786.353C365.142 787.614 368.158 788.82 370.461 789.972C372.82 791.124 374.849 792.796 376.549 794.99C378.249 797.183 379.099 800.008 379.099 803.462C379.099 806.753 378.249 809.741 376.549 812.429C374.903 815.116 372.491 817.254 369.31 818.845C366.129 820.435 362.373 821.23 358.04 821.23Z" fill="white"/>
<path d="M423.948 762.909V802.229C423.948 808.316 422.221 813.004 418.766 816.295C415.366 819.585 410.76 821.23 404.947 821.23C398.86 821.23 393.979 819.503 390.305 816.048C386.631 812.593 384.794 807.685 384.794 801.324H398.778C398.778 803.737 399.271 805.574 400.258 806.835C401.245 808.041 402.671 808.645 404.536 808.645C406.236 808.645 407.552 808.096 408.484 807C409.416 805.903 409.882 804.312 409.882 802.229V762.909H423.948Z" fill="white"/>
<path d="M485.323 762.909V820.654H471.257V796.882H449.377V820.654H435.31V762.909H449.377V785.53H471.257V762.909H485.323Z" fill="white"/>
<path d="M539.486 781.5C539.486 784.845 538.718 787.916 537.182 790.712C535.647 793.454 533.289 795.675 530.108 797.375C526.928 799.075 522.979 799.925 518.263 799.925H509.544V820.654H495.478V762.909H518.263C522.87 762.909 526.763 763.704 529.944 765.295C533.124 766.885 535.51 769.079 537.1 771.875C538.691 774.672 539.486 777.88 539.486 781.5ZM517.194 788.738C519.881 788.738 521.883 788.108 523.199 786.846C524.515 785.585 525.173 783.803 525.173 781.5C525.173 779.196 524.515 777.414 523.199 776.153C521.883 774.891 519.881 774.261 517.194 774.261H509.544V788.738H517.194Z" fill="white"/>
<path d="M596.822 762.909V820.654H582.755V796.882H560.875V820.654H546.809V762.909H560.875V785.53H582.755V762.909H596.822Z" fill="white"/>
<path d="M621.042 809.796H639.468V820.654H606.976V762.909H621.042V809.796Z" fill="white"/>
</g>
<path fill-rule="evenodd" clip-rule="evenodd" d="M450 885.484C690.511 885.484 885.484 690.511 885.484 450C885.484 209.489 690.511 14.5161 450 14.5161C209.489 14.5161 14.5161 209.489 14.5161 450C14.5161 690.511 209.489 885.484 450 885.484ZM450 900C698.528 900 900 698.528 900 450C900 201.472 698.528 0 450 0C201.472 0 0 201.472 0 450C0 698.528 201.472 900 450 900Z" fill="#6D157A"/>
</svg>
